<?xml version="1.0" standalone="no"?>
<!DOCTYPE svg PUBLIC "-//W3C//DTD SVG 20010904//EN"
 "http://www.w3.org/TR/2001/REC-SVG-20010904/DTD/svg10.dtd">
<svg version="1.0" xmlns="http://www.w3.org/2000/svg"
 width="1300.000000pt" height="1065.000000pt" viewBox="0 0 1300.000000 1065.000000"
 preserveAspectRatio="xMidYMid meet">

<g transform="translate(0.000000,1065.000000) scale(0.100000,-0.100000)"
fill="#000000" stroke="none">
<path d="M0 5770 l0 -4880 6500 0 6500 0 0 1640 c0 902 -3 1640 -8 1640 -4 0
-18 20 -31 45 -24 45 -41 51 -41 14 0 -24 -12 -24 -27 1 -9 14 -10 27 -3 45 6
15 7 38 4 52 -11 43 27 24 55 -27 14 -25 31 -51 38 -58 11 -11 13 562 13 3197
l0 3211 -6500 0 -6500 0 0 -4880z m1735 4778 c17 -38 79 -202 89 -235 7 -21 4
-23 -27 -23 -34 0 -36 2 -66 74 -17 41 -31 77 -31 80 0 2 -5 17 -10 31 -8 22
-13 25 -24 16 -8 -7 -28 -16 -45 -21 -26 -7 -33 -5 -41 10 -14 26 -13 27 14
34 13 3 37 19 53 36 38 40 69 39 88 -2z m350 -12 c41 -32 95 -133 95 -178 0
-45 -32 -68 -92 -68 -64 1 -106 22 -147 74 -17 21 -31 40 -31 42 0 2 -7 29
-15 60 -15 56 -14 58 8 82 20 21 29 23 83 20 49 -3 70 -10 99 -32z m279 -3
c17 -36 50 -119 81 -205 l14 -38 -32 0 c-31 0 -34 4 -69 85 -21 47 -38 93 -38
101 0 11 -5 14 -17 9 -70 -29 -74 -30 -83 -15 -14 22 -13 23 30 48 22 12 40
29 40 37 0 10 10 15 28 15 23 0 32 -7 46 -37z m2438 -7 c46 -20 79 -55 112
-120 34 -68 32 -106 -7 -124 -64 -31 -147 20 -201 123 -32 62 -33 99 -4 119
28 20 56 20 100 2z m275 -16 c62 -37 120 -142 111 -200 -8 -55 -112 -46 -174
17 -57 57 -91 149 -67 182 19 28 86 28 130 1z m286 -105 c31 -63 57 -117 57
-120 0 -4 -12 -5 -26 -3 -21 2 -34 18 -72 90 -43 83 -46 86 -66 72 -50 -35
-67 6 -21 51 48 48 63 38 128 -90z m5382 8 l20 -16 -20 8 c-58 21 -59 21 -40
-16 10 -19 24 -42 33 -52 8 -9 13 -20 10 -23 -9 -8 -68 78 -68 98 0 23 37 24
65 1z m147 -66 c22 -32 38 -61 35 -63 -5 -5 -57 61 -57 72 0 11 -32 44 -42 44
-5 0 -6 -4 -3 -10 3 -5 1 -10 -4 -10 -12 0 -14 11 -5 34 9 22 25 7 76 -67z
m39 74 c-11 -7 -5 -21 31 -67 36 -48 50 -59 71 -57 15 1 27 -2 27 -8 0 -15
-44 -10 -69 7 -26 18 -81 101 -81 121 0 7 8 13 18 13 14 0 14 -2 3 -9z m54
-19 c-3 -3 -11 0 -18 7 -9 10 -8 11 6 5 10 -3 15 -9 12 -12z m478 -52 c27 -39
45 -70 40 -70 -4 0 -24 25 -43 54 -27 42 -37 52 -47 44 -8 -6 -15 -9 -18 -6
-6 6 6 48 14 48 3 0 28 -32 54 -70z m85 13 c48 -72 54 -83 48 -83 -2 0 -21 23
-41 50 -20 28 -42 49 -49 48 -12 -3 -16 4 -16 27 0 29 20 15 58 -42z m79 42
c21 -15 83 -102 83 -117 0 -20 -44 -5 -74 25 -70 68 -77 140 -9 92z m-817 -82
c0 -22 -7 -14 -29 30 l-21 42 25 -30 c14 -16 25 -36 25 -42z m198 42 c-3 -3
-9 2 -12 12 -6 14 -5 15 5 6 7 -7 10 -15 7 -18z m38 -52 c-8 -9 -36 30 -29 40
3 5 12 -1 20 -13 8 -12 12 -24 9 -27z m-271 -13 c3 -5 1 -10 -4 -10 -6 0 -11
5 -11 10 0 6 2 10 4 10 3 0 8 -4 11 -10z m55 -10 c0 -5 -9 -10 -21 -10 -11 0
-17 5 -14 10 3 6 13 10 21 10 8 0 14 -4 14 -10z m-8165 -440 c3 -5 1 -10 -4
-10 -6 0 -11 5 -11 10 0 6 2 10 4 10 3 0 8 -4 11 -10z m-15 -50 c0 -5 -2 -10
-4 -10 -3 0 -8 5 -11 10 -3 6 -1 10 4 10 6 0 11 -4 11 -10z m307 -176 c-3 -3
-12 -4 -19 -1 -8 3 -5 6 6 6 11 1 17 -2 13 -5z m109 -41 c-10 -10 -19 5 -10
18 6 11 8 11 12 0 2 -7 1 -15 -2 -18z m7503 -19 c24 -25 49 -61 57 -81 20 -48
8 -60 -43 -45 -45 15 -101 85 -110 138 -5 32 -4 34 24 34 23 0 41 -11 72 -46z
m217 37 c-3 -5 8 -23 24 -41 16 -18 27 -36 24 -41 -3 -5 -1 -9 4 -9 6 0 13
-11 16 -25 4 -14 10 -24 15 -21 4 3 8 -1 8 -9 0 -8 -2 -15 -3 -15 -7 0 -56 70
-58 83 -1 7 -11 23 -23 36 -18 19 -21 20 -27 6 -6 -17 -26 -12 -26 6 0 6 4 8
9 4 6 -3 15 4 21 15 6 11 13 20 16 20 3 0 3 -4 0 -9z m-936 -26 c14 -16 10
-18 -14 -9 -9 3 -16 10 -16 15 0 14 16 11 30 -6z m800 -5 c-10 -19 -40 -18
-40 1 0 14 20 11 20 -3 0 -7 5 -5 11 5 14 24 22 22 9 -3z m-949 -47 c10 -24
23 -42 28 -39 13 8 24 -25 12 -37 -7 -7 -13 -4 -17 9 -4 10 -16 31 -26 47 -11
15 -17 27 -13 27 3 0 -3 12 -12 27 -11 17 -13 24 -5 19 8 -5 22 -28 33 -53z
m97 44 c9 3 14 3 10 -2 -17 -18 76 -159 101 -152 9 2 22 -2 29 -10 23 -24 -31
-16 -66 10 -52 39 -104 120 -101 159 0 9 2 10 5 1 3 -7 13 -9 22 -6z m922 -46
c40 -59 48 -81 31 -81 -15 0 -33 29 -25 42 4 7 3 10 -1 5 -10 -8 -66 73 -59
85 8 13 12 10 54 -51z m-1070 14 c0 -21 -2 -24 -13 -13 -10 9 -11 16 -3 25 15
17 16 16 16 -12z m-6750 5 c0 -5 -4 -10 -10 -10 -5 0 -10 5 -10 10 0 6 5 10
10 10 6 0 10 -4 10 -10z m7054 -6 c3 -8 2 -12 -4 -9 -6 3 -10 10 -10 16 0 14
7 11 14 -7z m70 -15 c-3 -5 -10 -7 -15 -3 -5 3 -7 10 -3 15 3 5 10 7 15 3 5
-3 7 -10 3 -15z m-7126 -28 c3 -8 -1 -12 -9 -9 -7 2 -15 10 -17 17 -3 8 1 12
9 9 7 -2 15 -10 17 -17z m7152 -1 c0 -5 -4 -10 -9 -10 -6 0 -13 5 -16 10 -3 6
1 10 9 10 9 0 16 -4 16 -10z m-7094 -47 c-8 -8 -36 5 -36 17 0 7 6 7 21 0 11
-7 18 -14 15 -17z m6977 12 c-3 -9 -8 -14 -10 -11 -3 3 -2 9 2 15 9 16 15 13
8 -4z m-6823 -5 c0 -5 -7 -10 -15 -10 -8 0 -15 5 -15 10 0 6 7 10 15 10 8 0
15 -4 15 -10z m2723 -4 c61 -25 137 -144 137 -213 0 -65 -76 -80 -151 -30 -87
59 -151 234 -91 250 34 9 73 7 105 -7z m4257 -17 c12 -22 13 -29 1 -29 -5 0
-16 13 -24 29 -13 25 -13 29 -1 24 8 -3 19 -14 24 -24z m-4511 6 c91 -47 168
-234 110 -266 -33 -17 -104 -5 -143 25 -75 57 -133 212 -91 243 25 17 89 17
124 -2z m4212 -37 c7 -13 6 -18 -3 -18 -18 1 -50 48 -42 62 7 11 23 -5 45 -44z
m-4477 25 c41 -19 87 -80 116 -153 26 -67 20 -108 -18 -116 -15 -3 -32 -7 -39
-9 -23 -7 -82 20 -117 53 -72 67 -112 198 -70 229 25 18 86 16 128 -4z m-2234
-3 c0 -5 -7 -10 -16 -10 -8 0 -12 5 -9 10 3 6 10 10 16 10 5 0 9 -4 9 -10z
m-274 -90 c56 -26 81 -47 102 -85 9 -16 17 -32 17 -35 1 -3 9 -22 18 -42 42
-94 -6 -151 -113 -133 -34 6 -40 10 -40 31 0 14 -10 35 -21 47 l-21 22 16 -33
c10 -18 15 -39 12 -45 -2 -7 -5 -4 -5 5 -1 11 -6 15 -15 12 -27 -10 -96 105
-96 160 0 19 4 24 16 19 15 -5 15 -3 -1 20 -10 16 -13 27 -6 27 6 0 11 -6 11
-14 0 -19 37 -9 45 11 5 14 3 14 -12 2 -15 -12 -16 -12 -10 5 6 14 4 17 -8 12
-29 -11 -15 4 18 18 43 19 41 19 93 -4z m-373 -15 c-3 -9 -8 -14 -10 -11 -3 3
-2 9 2 15 9 16 15 13 8 -4z m57 -11 c6 -14 8 -30 4 -35 -3 -5 -1 -9 4 -9 8 0
102 -217 102 -235 0 -3 -16 -5 -35 -5 -39 0 -35 -6 -90 132 -15 37 -27 78 -27
93 0 22 -2 23 -13 9 -6 -10 -17 -14 -23 -10 -8 4 -10 2 -6 -8 3 -8 -3 -19 -15
-25 -29 -16 -37 -14 -49 13 -9 21 -7 25 23 39 21 10 37 12 40 7 3 -6 12 -10
18 -9 9 0 9 2 0 6 -20 7 -15 19 8 19 14 0 22 -8 26 -29 4 -18 9 -24 13 -16 5
8 10 5 15 -10 6 -21 25 -20 25 1 0 6 -3 8 -6 5 -4 -4 -15 8 -24 26 -13 23 -14
34 -6 40 8 5 7 10 -4 17 -10 7 -11 10 -2 10 7 0 17 -12 22 -26z m-278 -66 c40
-94 74 -182 83 -215 6 -21 3 -23 -33 -23 l-40 0 -41 103 c-23 57 -41 109 -41
115 0 16 -4 15 -42 -8 -44 -26 -63 -25 -66 4 -1 16 6 26 23 34 13 6 34 25 46
41 16 21 31 31 50 31 24 0 30 -8 61 -82z m2324 33 c-4 -5 0 -11 6 -14 7 -2 9
-8 5 -13 -9 -10 -28 16 -21 28 3 4 7 8 10 8 3 0 3 -4 0 -9z m-122 -26 c3 -8 3
-22 0 -30 -6 -14 -8 -13 -20 2 -7 10 -14 24 -14 31 0 17 27 15 34 -3z m87 -17
c22 -28 25 -50 4 -42 -8 4 -15 12 -15 20 0 8 -7 14 -15 14 -8 0 -15 7 -15 15
0 22 19 18 41 -7z m-35 -23 c18 -14 17 -14 -13 -15 -31 0 -41 9 -26 23 10 10
17 9 39 -8z m-2789 -1 c-3 -3 -12 -4 -19 -1 -8 3 -5 6 6 6 11 1 17 -2 13 -5z
m-15 -26 c-9 -9 -15 -9 -24 0 -9 9 -7 12 12 12 19 0 21 -3 12 -12z m-102 -18
c0 -5 -2 -10 -4 -10 -3 0 -8 5 -11 10 -3 6 -1 10 4 10 6 0 11 -4 11 -10z m-20
-50 c0 -5 -2 -10 -4 -10 -3 0 -8 5 -11 10 -3 6 -1 10 4 10 6 0 11 -4 11 -10z
m178 -15 c-3 -3 -9 2 -12 12 -6 14 -5 15 5 6 7 -7 10 -15 7 -18z m-136 -49
c-7 -13 -22 16 -21 44 0 24 0 24 13 -5 7 -16 11 -34 8 -39z m2925 58 c-3 -3
-12 -4 -19 -1 -8 3 -5 6 6 6 11 1 17 -2 13 -5z m-2752 -25 c11 -17 -1 -21 -15
-4 -8 9 -8 15 -2 15 6 0 14 -5 17 -11z m4255 -49 c0 -5 -5 -10 -11 -10 -5 0
-7 5 -4 10 3 6 8 10 11 10 2 0 4 -4 4 -10z m-4410 -16 c0 -2 -7 -4 -15 -4 -8
0 -15 4 -15 10 0 5 7 7 15 4 8 -4 15 -8 15 -10z m150 6 c0 -5 -4 -10 -10 -10
-5 0 -10 5 -10 10 0 6 5 10 10 10 6 0 10 -4 10 -10z m4205 0 c3 -5 1 -10 -4
-10 -6 0 -11 5 -11 10 0 6 2 10 4 10 3 0 8 -4 11 -10z m-4325 -40 c13 -8 13
-10 -2 -10 -9 0 -20 5 -23 10 -8 13 5 13 25 0z m90 -10 c0 -5 -4 -10 -9 -10
-6 0 -13 5 -16 10 -3 6 1 10 9 10 9 0 16 -4 16 -10z m4280 -29 c0 -6 -4 -13
-10 -16 -5 -3 -10 1 -10 9 0 9 5 16 10 16 6 0 10 -4 10 -9z m55 -1 c3 -5 1
-10 -4 -10 -6 0 -11 5 -11 10 0 6 2 10 4 10 3 0 8 -4 11 -10z m6580 -100 c32
-33 27 -42 -5 -10 -11 11 -27 20 -35 20 -14 0 -14 -3 0 -30 19 -36 74 -100 86
-100 14 0 11 28 -7 58 l-16 27 21 -25 c25 -31 28 -70 4 -70 -32 0 -134 136
-116 154 14 14 41 4 68 -24z m-6590 10 c3 -5 2 -10 -4 -10 -5 0 -13 5 -16 10
-3 6 -2 10 4 10 5 0 13 -4 16 -10z m6487 -42 c64 -98 70 -108 65 -108 -4 0
-25 27 -47 61 -31 45 -45 58 -54 50 -7 -6 -15 -9 -18 -6 -7 8 3 55 12 55 4 0
23 -24 42 -52z m168 32 c0 -5 -4 -10 -10 -10 -5 0 -10 5 -10 10 0 6 5 10 10
10 6 0 10 -4 10 -10z m95 -95 l17 -30 -29 33 c-16 18 -37 47 -47 65 l-18 32
30 -35 c17 -19 38 -48 47 -65z m-10425 65 c0 -5 -4 -10 -10 -10 -5 0 -10 5
-10 10 0 6 5 10 10 10 6 0 10 -4 10 -10z m80 0 c0 -5 -2 -10 -4 -10 -3 0 -8 5
-11 10 -3 6 -1 10 4 10 6 0 11 -4 11 -10z m-160 -10 c0 -5 -4 -10 -9 -10 -6 0
-13 5 -16 10 -3 6 1 10 9 10 9 0 16 -4 16 -10z m215 -30 c3 -5 1 -10 -4 -10
-6 0 -11 5 -11 10 0 6 2 10 4 10 3 0 8 -4 11 -10z m8848 -34 c0 -11 4 -15 13
-12 8 3 14 1 14 -5 0 -6 10 -25 22 -42 13 -18 21 -38 20 -45 -2 -8 1 -11 7 -7
7 4 8 0 4 -11 -4 -12 -3 -15 5 -10 7 4 12 1 12 -8 0 -8 6 -17 13 -19 8 -4 8
-6 0 -6 -15 -1 -75 74 -66 83 4 3 -9 22 -27 41 -19 19 -30 35 -26 35 5 0 2 7
-5 17 -12 14 -12 16 1 11 8 -3 14 -13 13 -22z m-107 -13 c44 -42 85 -109 77
-129 -4 -12 -3 -15 5 -10 18 11 15 -13 -4 -31 -14 -14 -19 -13 -57 13 -44 32
-107 126 -107 162 0 33 48 30 86 -5z m-130 -25 c50 -46 84 -104 84 -143 0 -66
-104 0 -156 98 -48 93 -7 118 72 45z m-8706 12 c0 -5 -4 -10 -9 -10 -6 0 -13
5 -16 10 -3 6 1 10 9 10 9 0 16 -4 16 -10z m8930 -11 c0 -6 -4 -7 -10 -4 -5 3
-10 11 -10 16 0 6 5 7 10 4 6 -3 10 -11 10 -16z m-8875 -29 c3 -5 2 -10 -4
-10 -5 0 -13 5 -16 10 -3 6 -2 10 4 10 5 0 13 -4 16 -10z m80 0 c3 -5 1 -10
-4 -10 -6 0 -11 5 -11 10 0 6 2 10 4 10 3 0 8 -4 11 -10z m-165 -10 c0 -5 -4
-10 -10 -10 -5 0 -10 5 -10 10 0 6 5 10 10 10 6 0 10 -4 10 -10z m300 -30 c0
-5 -5 -10 -11 -10 -5 0 -7 5 -4 10 3 6 8 10 11 10 2 0 4 -4 4 -10z m-310 -20
c0 -5 -7 -10 -16 -10 -8 0 -12 5 -9 10 3 6 10 10 16 10 5 0 9 -4 9 -10z m80 0
c0 -5 -4 -10 -9 -10 -6 0 -13 5 -16 10 -3 6 1 10 9 10 9 0 16 -4 16 -10z m77
4 c-3 -3 -12 -4 -19 -1 -8 3 -5 6 6 6 11 1 17 -2 13 -5z m6216 -104 c34 -27
104 -133 116 -176 13 -47 4 -72 -30 -79 -60 -13 -127 42 -183 152 -28 57 -33
92 -14 111 19 19 82 14 111 -8z m-539 -35 l21 -40 9 28 c7 18 17 27 32 27 19
0 35 -23 93 -129 39 -71 71 -134 71 -140 0 -6 -10 -11 -22 -11 -18 0 -32 16
-62 73 -22 39 -48 85 -57 101 l-18 29 1 -31 c1 -17 7 -33 15 -36 23 -9 14 -24
-17 -28 -18 -3 -35 1 -41 9 -8 9 -8 13 0 13 6 0 11 4 11 9 0 6 -21 11 -47 13
l-48 3 -3 78 c-3 76 -2 78 19 75 14 -2 30 -18 43 -43z m315 20 c73 -37 163
-211 131 -250 -16 -20 -75 -19 -108 1 -30 18 -79 79 -111 139 -23 44 -28 111
-8 118 24 10 69 7 96 -8z m-959 -88 c0 -5 -4 -5 -10 -2 -5 3 -10 14 -10 23 0
15 2 15 10 2 5 -8 10 -19 10 -23z m110 -4 c60 -112 130 -248 130 -255 0 -5
-13 -8 -28 -8 -29 0 -27 -4 -112 162 l-25 48 -27 -26 -27 -27 -12 25 c-10 23
-8 31 10 56 11 17 21 37 21 46 0 10 9 16 25 16 18 0 30 -10 45 -37z m-229 -16
c42 -28 104 -118 119 -173 17 -58 10 -86 -23 -102 -25 -12 -35 -12 -72 3 -53
20 -95 65 -135 145 -31 62 -39 117 -18 138 20 20 92 14 129 -11z m-201 -149
l77 -147 -25 -6 c-14 -3 -28 -2 -32 2 -5 4 -31 53 -60 108 -29 55 -54 102 -56
104 -3 3 -11 -5 -20 -17 -19 -27 -40 -28 -54 -2 -9 16 -6 25 15 47 14 15 25
36 25 46 0 14 6 18 27 15 24 -3 36 -21 103 -150z m404 33 c11 -4 15 -10 9 -14
-5 -3 -19 0 -29 8 -20 15 -11 18 20 6z m579 -108 c4 -3 -3 -11 -16 -18 -29
-15 -137 -17 -137 -3 0 6 9 8 20 5 11 -3 22 -1 25 3 3 4 13 6 23 4 9 -3 28 -1
42 5 31 12 35 13 43 4z m21 -39 c10 -25 -1 -29 -14 -5 -6 12 -7 21 -1 21 5 0
12 -7 15 -16z m-107 -16 c4 -7 8 -17 8 -22 0 -5 13 -13 28 -17 25 -7 27 -5 21
14 -6 21 -5 21 12 4 17 -15 17 -19 4 -27 -8 -6 -22 -9 -31 -7 -14 4 -14 1 0
-29 13 -28 22 -33 49 -34 46 0 40 -16 -10 -24 -45 -7 -74 7 -48 24 10 7 11 13
4 18 -5 4 -16 22 -23 40 -8 17 -17 32 -21 32 -4 0 -10 9 -13 20 -6 22 7 27 20
8z m98 -68 c3 -5 1 -10 -4 -10 -6 0 -11 5 -11 10 0 6 2 10 4 10 3 0 8 -4 11
-10z m-5475 -20 c0 -5 -4 -10 -10 -10 -5 0 -10 5 -10 10 0 6 5 10 10 10 6 0
10 -4 10 -10z m-100 -60 c0 -5 -4 -10 -10 -10 -5 0 -10 5 -10 10 0 6 5 10 10
10 6 0 10 -4 10 -10z m8433 -107 c20 -31 35 -59 33 -61 -2 -2 -57 -12 -121
-22 -65 -11 -119 -21 -121 -23 -2 -1 8 -22 22 -45 29 -49 37 -50 157 -27 43 8
87 15 96 15 11 0 32 -23 54 -57 19 -32 34 -59 33 -60 -1 -1 -49 -10 -107 -19
-57 -9 -108 -19 -112 -24 -4 -4 7 -31 25 -61 27 -45 37 -54 58 -51 24 3 170
28 217 38 17 3 29 -8 63 -62 23 -36 40 -67 38 -69 -2 -2 -55 -13 -118 -25 -63
-12 -155 -28 -204 -38 -78 -14 -91 -14 -98 -1 -5 7 -80 129 -167 269 -186 301
-196 318 -190 323 6 5 338 55 375 56 27 1 35 -6 67 -56z m-8235 18 c3 -8 -1
-12 -9 -9 -7 2 -15 10 -17 17 -3 8 1 12 9 9 7 -2 15 -10 17 -17z m-158 -9 c0
-14 -11 -21 -26 -15 -8 3 -11 9 -8 14 7 11 34 12 34 1z m5688 -52 c20 -13 35
-31 38 -49 3 -16 16 -34 29 -41 12 -7 27 -23 33 -35 17 -37 -5 -56 -76 -64
-65 -8 -79 -2 -74 30 2 9 -6 32 -17 50 -12 19 -25 44 -30 56 -6 12 -19 24 -30
28 -37 11 -24 34 22 38 23 2 49 4 57 5 8 1 30 -7 48 -18z m-218 -11 c0 -5 -7
-9 -15 -9 -15 0 -20 12 -9 23 8 8 24 -1 24 -14z m-5350 -34 c0 -8 -7 -15 -15
-15 -8 0 -15 7 -15 15 0 8 7 15 15 15 8 0 15 -7 15 -15z m5340 0 c10 -12 10
-15 -4 -15 -9 0 -16 7 -16 15 0 8 2 15 4 15 2 0 9 -7 16 -15z m51 -26 c4 -18
5 -36 3 -39 -8 -7 -24 24 -19 37 2 7 0 15 -5 18 -14 9 -12 27 2 23 7 -3 16
-20 19 -39z m1964 -10 c57 -28 112 -91 138 -156 22 -58 16 -104 -18 -132 -32
-25 -31 -28 7 -37 18 -3 49 -18 68 -33 66 -49 231 -194 226 -198 -7 -8 -127
-32 -156 -32 -16 0 -42 15 -70 42 -25 23 -57 50 -70 59 -22 15 -23 19 -10 29
13 9 12 10 -3 5 -13 -4 -35 8 -70 39 -50 43 -103 65 -127 50 -8 -5 -7 -12 2
-23 18 -21 123 -201 131 -224 6 -17 -8 -22 -124 -43 -35 -6 -37 -5 -58 37 -12
23 -30 57 -41 73 -10 17 -57 98 -105 180 -48 83 -96 166 -107 185 -12 19 -32
55 -46 80 -13 25 -29 51 -35 58 -5 7 -7 15 -4 18 12 13 307 53 363 50 39 -2
79 -12 109 -27z m-1920 1 c3 -5 1 -10 -4 -10 -6 0 -11 5 -11 10 0 6 2 10 4 10
3 0 8 -4 11 -10z m-95 -16 c0 -8 -4 -12 -10 -9 -5 3 -10 10 -10 16 0 5 5 9 10
9 6 0 10 -7 10 -16z m90 -35 c0 -6 -4 -7 -10 -4 -5 3 -10 11 -10 16 0 6 5 7
10 4 6 -3 10 -11 10 -16z m-40 -9 c0 -5 -4 -10 -10 -10 -5 0 -10 5 -10 10 0 6
5 10 10 10 6 0 10 -4 10 -10z m-4525 -20 c3 -5 1 -10 -4 -10 -6 0 -11 5 -11
10 0 6 2 10 4 10 3 0 8 -4 11 -10z m5534 -180 c297 -305 459 -475 457 -477 -1
-2 -43 -10 -92 -18 l-89 -16 -50 55 -51 55 -75 -15 c-40 -8 -81 -18 -89 -23
-8 -4 -23 -7 -32 -5 -21 3 -22 -11 -7 -72 6 -25 10 -47 7 -49 -5 -6 -157 -35
-180 -35 -11 0 -18 8 -18 19 0 11 -20 120 -44 243 -90 456 -89 450 -75 459 7
4 43 11 79 14 36 4 70 8 75 10 28 10 48 -6 184 -145z m-6399 80 c0 -5 -5 -12
-11 -16 -14 -8 -33 11 -25 25 7 11 36 4 36 -9z m75 10 c-3 -5 -12 -7 -20 -3
-21 7 -19 13 6 13 11 0 18 -4 14 -10z m68 -44 c3 -8 -1 -17 -9 -20 -9 -4 -14
1 -14 14 0 23 15 27 23 6z m827 -16 c0 -5 -4 -10 -10 -10 -5 0 -10 5 -10 10 0
6 5 10 10 10 6 0 10 -4 10 -10z m4601 -175 c31 -99 82 -260 113 -359 32 -98
55 -180 53 -183 -3 -2 -38 -11 -79 -19 -40 -8 -83 -17 -95 -19 -23 -5 -28 -2
-89 71 -233 275 -294 344 -294 334 0 -6 21 -98 46 -203 26 -106 50 -206 54
-223 l7 -31 -86 -16 c-47 -9 -96 -18 -108 -21 -16 -3 -30 6 -57 38 -19 24 -48
48 -63 55 -35 14 -103 105 -103 137 0 22 -166 252 -237 330 -34 36 -107 144
-101 149 9 9 202 35 208 28 9 -11 197 -265 240 -325 18 -27 35 -46 37 -44 2 2
-17 90 -42 196 -25 106 -45 196 -45 200 0 8 191 40 202 34 4 -3 72 -83 153
-179 80 -96 150 -177 154 -180 5 -3 -20 79 -55 182 -35 102 -64 192 -64 199 0
8 27 16 73 22 128 17 113 32 178 -173z m-5446 135 c3 -6 -1 -13 -10 -16 -19
-8 -30 0 -20 15 8 14 22 14 30 1z m980 0 c3 -5 2 -10 -4 -10 -5 0 -13 5 -16
10 -3 6 -2 10 4 10 5 0 13 -4 16 -10z m-155 -21 c0 -6 -4 -7 -10 -4 -5 3 -10
11 -10 16 0 6 5 7 10 4 6 -3 10 -11 10 -16z m80 17 c0 -11 -19 -15 -25 -6 -3
5 1 10 9 10 9 0 16 -2 16 -4z m-930 -55 c0 -14 -18 -23 -30 -16 -6 4 -8 11 -5
16 8 12 35 12 35 0z m130 -47 c0 -14 -3 -14 -15 -4 -8 7 -15 14 -15 16 0 2 7
4 15 4 8 0 15 -7 15 -16z m-65 -3 c3 -5 1 -12 -4 -15 -13 -8 -42 4 -35 15 7
12 31 12 39 0z m-87 -13 c-7 -19 -38 -22 -38 -4 0 10 9 16 21 16 12 0 19 -5
17 -12z m4097 -118 c25 -49 45 -91 45 -94 0 -2 -21 -7 -47 -10 -120 -17 -193
-30 -193 -37 0 -3 63 -134 139 -290 91 -186 135 -286 127 -290 -6 -4 -54 -14
-106 -24 -52 -9 -102 -19 -111 -21 -12 -3 -50 66 -159 291 -164 338 -133 307
-285 280 -127 -23 -119 -27 -165 71 -22 48 -40 90 -40 95 0 4 19 11 43 14 50
9 676 102 694 104 7 1 33 -39 58 -89z m331 55 c-10 -8 -23 -12 -29 -8 -5 3 1
12 14 19 30 15 41 7 15 -11z m54 11 c0 -11 -19 -15 -25 -6 -3 5 1 10 9 10 9 0
16 -2 16 -4z m-115 -16 c3 -5 2 -10 -4 -10 -5 0 -13 5 -16 10 -3 6 -2 10 4 10
5 0 13 -4 16 -10z m30 -20 c3 -5 1 -10 -4 -10 -6 0 -11 5 -11 10 0 6 2 10 4
10 3 0 8 -4 11 -10z m-3586 -19 c17 -11 6 -31 -19 -31 -21 0 -35 26 -17 34 18
7 21 7 36 -3z m3671 -1 c0 -5 -2 -10 -4 -10 -3 0 -8 5 -11 10 -3 6 -1 10 4 10
6 0 11 -4 11 -10z m-3746 -31 c-8 -13 -30 -11 -43 5 -10 11 -8 15 6 18 21 5
45 -10 37 -23z m3686 21 c0 -5 -4 -10 -10 -10 -5 0 -10 5 -10 10 0 6 5 10 10
10 6 0 10 -4 10 -10z m-3765 -20 c0 -22 -29 -18 -33 3 -3 14 1 18 15 15 10 -2
18 -10 18 -18z m185 -22 c0 -16 -3 -19 -11 -11 -6 6 -8 16 -5 22 11 17 16 13
16 -11z m3630 -50 c0 -13 -23 -5 -28 10 -2 7 2 10 12 6 9 -3 16 -11 16 -16z
m-3630 -8 c0 -23 -25 -27 -33 -6 -7 16 1 26 20 26 7 0 13 -9 13 -20z m3675
-20 c3 -5 -1 -10 -9 -10 -9 0 -16 5 -16 10 0 6 4 10 9 10 6 0 13 -4 16 -10z
m-60 -10 c3 -5 2 -10 -4 -10 -5 0 -13 5 -16 10 -3 6 -2 10 4 10 5 0 13 -4 16
-10z m-1867 -45 c12 -25 25 -45 30 -45 4 0 8 -8 8 -17 1 -10 4 -29 8 -43 6
-22 4 -26 -18 -28 -14 -1 -85 -11 -158 -23 -73 -12 -152 -23 -175 -26 -24 -3
-43 -11 -43 -17 0 -24 55 -136 67 -136 16 0 280 38 316 46 26 5 29 2 63 -71
20 -41 34 -78 31 -81 -7 -7 -107 -27 -247 -49 -51 -9 -95 -17 -97 -19 -2 -2
13 -38 33 -82 90 -199 118 -264 113 -268 -2 -1 -56 -12 -119 -24 -63 -12 -127
-24 -141 -28 -24 -5 -28 -1 -52 58 -14 34 -38 92 -54 128 -39 85 -74 166 -113
265 -18 44 -46 109 -62 144 -16 34 -27 70 -24 78 3 8 2 12 -3 9 -7 -5 -81 144
-81 164 0 6 81 20 220 37 19 2 127 19 240 37 113 19 212 35 221 35 8 1 24 -18
37 -44z m-1759 22 c12 -15 5 -27 -16 -27 -7 0 -13 9 -13 20 0 23 13 26 29 7z
m-17 -79 c-9 -9 -12 -7 -12 12 0 19 3 21 12 12 9 -9 9 -15 0 -24z m8048 -85
c0 -37 30 -339 36 -368 4 -16 40 -83 80 -148 41 -65 75 -123 77 -129 2 -11
-41 -27 -110 -42 -31 -7 -31 -6 -115 127 -77 124 -90 139 -168 199 -255 193
-330 252 -330 258 0 3 26 12 58 18 31 7 68 14 82 17 21 4 45 -12 138 -90 128
-108 123 -110 98 45 -8 47 -11 88 -8 92 7 6 124 35 150 37 6 1 12 -7 12 -16z
m-8012 -109 c175 -39 308 -147 392 -319 151 -310 43 -531 -297 -605 -185 -40
-329 -35 -457 16 -219 87 -379 318 -380 544 -1 66 4 85 32 143 52 105 136 166
289 208 140 39 285 43 421 13z m7166 -151 c52 -89 56 -81 -56 -103 -33 -7 -58
-17 -58 -24 0 -6 25 -49 55 -95 30 -46 55 -86 55 -89 0 -3 41 -75 91 -159 51
-85 89 -156 87 -159 -8 -7 -158 -47 -161 -43 -8 11 -183 308 -195 329 -7 14
-22 39 -32 55 -10 17 -29 50 -42 74 -12 24 -29 46 -36 48 -7 3 -49 -4 -95 -15
-45 -12 -82 -20 -83 -19 -13 19 -92 162 -90 164 2 2 91 23 281 64 22 5 76 17
120 28 44 10 87 19 96 20 11 1 33 -27 63 -76z m-9118 -119 c118 -24 195 -71
256 -154 33 -44 44 -90 22 -90 -8 0 -14 5 -14 11 0 7 -10 9 -27 5 -16 -4 -48
-11 -73 -15 -25 -5 -85 -17 -134 -26 l-89 -18 -26 30 c-44 50 -87 68 -166 67
-39 -1 -86 -8 -108 -17 -43 -18 -63 -57 -47 -88 20 -37 67 -46 270 -52 291 -9
425 -40 516 -120 69 -61 98 -125 99 -217 0 -65 -4 -82 -29 -128 -75 -134 -237
-210 -532 -248 -232 -30 -378 1 -499 108 -46 40 -122 145 -112 154 2 3 51 16
108 30 57 13 137 34 176 44 40 11 79 20 87 20 12 0 27 -21 25 -36 -2 -16 59
-65 104 -84 90 -39 237 -16 285 45 27 35 28 65 2 98 -33 41 -97 55 -324 67
-287 15 -385 42 -480 129 -40 37 -76 117 -76 171 1 159 169 269 480 314 131
19 214 19 306 0z m7972 -141 c27 -49 98 -173 157 -278 59 -104 118 -210 132
-235 14 -25 33 -54 43 -65 40 -44 32 -55 -65 -80 -49 -14 -93 -24 -96 -25 -7
0 -98 160 -244 425 -48 88 -95 168 -103 178 -8 9 -12 17 -9 17 4 0 -9 24 -28
54 l-35 55 58 11 c31 6 71 15 87 20 17 4 35 9 42 9 6 1 34 -38 61 -86z m-2221
-109 c-3 -3 -12 -4 -19 -1 -8 3 -5 6 6 6 11 1 17 -2 13 -5z m-5402 -34 c3 -5
1 -10 -4 -10 -6 0 -11 5 -11 10 0 6 2 10 4 10 3 0 8 -4 11 -10z m-85 -14 c0
-11 -19 -15 -25 -6 -3 5 1 10 9 10 9 0 16 -2 16 -4z m6164 -42 c20 -43 7 -43
234 5 176 38 236 39 300 7 108 -55 194 -195 175 -286 -3 -19 -23 -50 -44 -71
-41 -41 -40 -45 6 -50 45 -5 162 -92 313 -234 l43 -41 -73 -18 c-40 -11 -92
-25 -116 -33 -42 -14 -44 -14 -78 17 -24 21 -42 29 -55 25 -14 -5 -18 -2 -17
12 2 12 -23 42 -72 87 -41 37 -74 72 -72 78 1 5 -2 6 -8 3 -6 -4 -17 1 -24 10
-8 11 -31 19 -64 23 -47 4 -52 3 -52 -16 0 -24 25 -46 42 -36 10 5 10 4 1 -6
-6 -7 -8 -20 -4 -29 39 -86 71 -138 90 -147 43 -22 73 -55 68 -75 -3 -12 -1
-17 5 -12 8 4 9 -8 4 -37 -9 -55 -14 -64 -32 -49 -12 10 -12 14 3 25 11 8 13
13 6 14 -9 0 -11 10 -6 30 4 22 0 36 -12 50 -24 26 -39 15 -20 -14 14 -22 14
-24 -2 -30 -10 -4 -19 -2 -21 4 -3 7 -8 6 -16 -3 -6 -8 -45 -24 -87 -35 l-76
-20 -54 102 c-109 206 -230 442 -252 489 l-22 47 -49 -2 c-34 -2 -50 1 -54 11
-3 10 2 11 19 6 13 -3 19 -3 13 2 -19 14 -75 134 -68 145 4 6 2 8 -4 4 -6 -3
-15 6 -20 21 -7 18 -11 22 -11 11 -1 -19 -16 -24 -26 -9 -8 14 32 33 100 47
33 6 63 12 66 13 3 0 13 -15 23 -35z m-485 -438 c150 -306 161 -335 161 -420
0 -131 -77 -212 -245 -257 -54 -15 -112 -22 -176 -23 -92 -1 -98 0 -173 38
-148 75 -179 122 -425 648 -23 48 -41 91 -41 96 0 5 46 19 103 31 57 12 112
24 123 27 18 5 27 -8 64 -83 188 -383 231 -468 247 -485 69 -76 208 -75 248 2
25 48 11 86 -130 367 -68 136 -126 252 -127 257 -2 5 51 22 117 36 66 15 121
28 122 29 1 0 61 -118 132 -263z m2795 178 c4 -10 1 -14 -6 -12 -15 5 -23 28
-10 28 5 0 13 -7 16 -16z m-174 -55 c0 -11 -4 -17 -10 -14 -5 3 -10 13 -10 21
0 8 5 14 10 14 6 0 10 -9 10 -21z m55 -77 c-8 -8 -25 17 -25 38 0 9 6 6 16 -8
9 -13 13 -26 9 -30z m-80 -13 c13 -20 0 -16 -25 8 -23 23 -23 24 -3 14 12 -6
25 -16 28 -22z m-102 -14 c4 -8 2 -17 -3 -20 -6 -4 -10 -4 -10 -1 0 2 -3 11
-6 20 -3 9 -2 16 4 16 5 0 12 -7 15 -15z m-98 -35 c-3 -5 -12 -10 -18 -10 -7
0 -6 4 3 10 19 12 23 12 15 0z m0 -47 c-15 -36 -17 -64 -5 -78 6 -8 9 -18 6
-24 -10 -16 -46 0 -52 23 -6 25 11 77 29 88 20 13 29 9 22 -9z m31 -69 c-5
-14 -9 -15 -19 -5 -9 9 -9 14 3 21 18 11 24 6 16 -16z m-4104 -2 c30 -10 76
-30 101 -45 60 -36 152 -121 144 -134 -3 -5 -54 -32 -112 -58 l-105 -48 -28
25 c-70 66 -164 81 -239 39 -45 -26 -73 -76 -73 -129 0 -70 74 -237 138 -314
56 -67 161 -87 242 -45 61 30 83 73 76 151 l-4 59 135 -6 c75 -4 139 -10 142
-13 3 -3 6 -47 6 -97 0 -80 -4 -98 -27 -142 -36 -68 -81 -108 -161 -145 -99
-44 -202 -63 -318 -58 -82 4 -107 10 -165 37 -133 62 -222 152 -293 296 -58
115 -81 198 -81 284 0 171 108 288 314 341 96 25 236 26 308 2z m4158 -2 c0
-5 -5 -10 -11 -10 -5 0 -7 5 -4 10 3 6 8 10 11 10 2 0 4 -4 4 -10z m-186 -43
c-7 -20 -34 -23 -34 -4 0 19 22 39 32 29 5 -5 6 -16 2 -25z m-104 -40 c0 -16
-35 -1 -38 16 -3 16 -1 17 17 5 12 -7 21 -17 21 -21z m-1013 -79 c-3 -8 -6 -5
-6 6 -1 11 2 17 5 13 3 -3 4 -12 1 -19z m-2119 -16 c2 -7 -5 -12 -17 -12 -14
0 -19 5 -14 15 6 17 25 15 31 -3z m2239 2 c-3 -3 -12 -4 -19 -1 -8 3 -5 6 6 6
11 1 17 -2 13 -5z m-2303 -25 c-9 -15 -34 -10 -28 5 3 8 12 12 20 9 8 -3 11
-9 8 -14z m2200 -5 c5 -14 4 -15 -9 -4 -17 14 -19 20 -6 20 5 0 12 -7 15 -16z
m-2206 -54 c11 -18 10 -20 -8 -20 -11 0 -20 2 -20 4 0 2 -3 11 -6 20 -9 23 19
20 34 -4z m69 4 c-3 -3 -12 -4 -19 -1 -8 3 -5 6 6 6 11 1 17 -2 13 -5z m66
-41 c-6 -16 -13 -16 -35 1 -13 9 -14 16 -6 24 14 14 48 -6 41 -25z m-93 2 c-7
-9 -15 -13 -19 -10 -3 3 1 10 9 15 21 14 24 12 10 -5z m-2238 -100 c20 -49 38
-92 38 -95 0 -3 -37 -14 -82 -24 -220 -48 -463 -107 -470 -114 -4 -4 7 -40 24
-79 22 -55 35 -73 49 -73 19 0 107 20 353 81 65 16 126 29 136 29 13 0 27 -25
54 -91 20 -51 35 -93 34 -94 -2 -2 -117 -31 -255 -65 -203 -50 -253 -66 -253
-79 0 -14 65 -180 74 -189 4 -4 307 72 504 127 l71 19 46 -110 c25 -61 45
-111 43 -113 -2 -1 -66 -18 -143 -38 -77 -19 -189 -49 -250 -66 -60 -17 -146
-40 -190 -52 -44 -12 -93 -25 -110 -30 -63 -19 -214 -59 -223 -59 -8 0 -85
187 -147 360 -15 41 -33 89 -40 105 -19 45 -197 518 -202 536 -4 13 7 19 44
27 26 6 165 37 308 68 143 31 316 69 385 85 69 15 134 27 144 26 15 -2 30 -25
58 -92z m4249 29 c-17 -22 -22 -24 -27 -11 -8 21 3 37 21 30 8 -3 15 0 15 6 0
6 -7 11 -15 11 -9 0 -12 6 -8 15 5 13 8 13 20 -5 13 -18 12 -23 -6 -46z
m-1878 14 c-3 -6 -12 -3 -20 5 -9 9 -12 20 -8 28 6 9 11 8 21 -6 7 -10 11 -22
7 -27z m1937 -8 c-8 -5 -22 -10 -30 -10 -13 0 -13 1 0 10 8 5 22 10 30 10 13
0 13 -1 0 -10z m65 0 c3 -5 1 -10 -4 -10 -6 0 -11 5 -11 10 0 6 2 10 4 10 3 0
8 -4 11 -10z m-2005 -41 c0 -22 -13 -25 -29 -6 -8 10 -7 17 1 25 15 15 28 6
28 -19z m1973 24 c-7 -2 -19 -2 -25 0 -7 3 -2 5 12 5 14 0 19 -2 13 -5z m-53
-13 c0 -5 -8 -10 -17 -10 -15 0 -16 2 -3 10 19 12 20 12 20 0z m-2060 -21 c0
-5 5 -7 10 -4 6 3 10 -1 10 -10 0 -22 -34 -15 -38 8 -2 9 1 17 7 17 6 0 11 -5
11 -11z m80 -9 c0 -5 -9 -10 -21 -10 -13 0 -18 -4 -13 -12 5 -10 4 -10 -6 -1
-7 6 -9 16 -6 22 9 14 46 14 46 1z m-4385 -389 c30 -10 74 -31 96 -47 48 -33
132 -131 126 -148 -2 -6 -55 -25 -118 -43 -63 -18 -141 -41 -174 -51 l-60 -19
-19 27 c-11 15 -36 37 -55 50 -66 43 -218 25 -266 -32 -30 -36 -32 -61 -5 -88
25 -25 8 -24 310 -25 277 -2 320 -8 429 -63 199 -99 228 -369 59 -534 -120
-117 -426 -218 -658 -218 -139 0 -232 35 -326 122 -51 47 -108 133 -101 151 3
7 25 19 48 26 24 7 109 33 188 58 116 37 145 43 151 32 28 -48 61 -81 104
-105 43 -23 56 -26 117 -22 120 9 209 69 209 143 0 39 -16 63 -60 85 -36 18
-59 20 -263 20 -309 0 -404 19 -510 103 -46 36 -86 112 -94 177 -13 110 63
233 184 298 211 112 520 158 688 103z m2879 -436 c3 -8 1 -15 -4 -15 -6 0 -10
7 -10 15 0 8 2 15 4 15 2 0 6 -7 10 -15z m217 -8 c-1 -12 -15 -9 -19 4 -3 6 1
10 8 8 6 -3 11 -8 11 -12z m-151 -47 c0 -5 -4 -10 -10 -10 -5 0 -10 5 -10 10
0 6 5 10 10 10 6 0 10 -4 10 -10z m2977 -5 c-5 -14 -39 -13 -44 2 -3 9 4 12
21 11 15 -1 25 -7 23 -13z m-46 -12 c12 -15 12 -16 -4 -10 -13 5 -25 0 -38
-15 -10 -13 -18 -17 -19 -10 0 11 34 52 44 52 2 0 10 -8 17 -17z m109 -11 c15
-12 22 -31 25 -62 1 -25 3 -53 4 -62 0 -10 6 -18 12 -18 6 0 9 9 6 19 -4 15
-1 18 12 13 14 -5 14 -4 2 11 -7 9 -17 15 -20 12 -4 -2 -8 9 -8 26 0 30 1 30
28 -15 18 -28 26 -52 22 -62 -4 -11 -2 -15 4 -11 6 4 20 -15 32 -45 l21 -52
-27 -30 c-15 -17 -37 -39 -48 -50 -20 -19 -20 -19 5 -11 14 4 28 12 31 17 3 5
10 9 15 8 5 -1 10 4 13 11 2 7 -1 9 -9 4 -8 -5 -11 -3 -9 4 8 23 24 10 22 -17
-3 -39 -37 -62 -89 -62 -39 0 -50 5 -89 44 -58 59 -106 154 -130 259 -4 21 -2
28 7 25 7 -3 18 5 23 16 7 14 19 20 33 18 12 -2 32 4 44 12 29 20 41 20 68 -2z
m-303 -69 c87 -41 194 -268 163 -344 -28 -66 -116 -77 -179 -22 -61 51 -141
220 -141 296 0 40 49 87 90 87 18 0 48 -8 67 -17z m-307 -72 c0 -5 41 -93 90
-195 50 -103 90 -191 90 -196 0 -4 -13 -13 -30 -18 -26 -10 -31 -8 -42 11 -16
29 -84 170 -110 227 -22 49 -16 51 -68 -20 l-18 -25 -17 36 c-17 35 -17 37 9
77 14 23 26 55 26 71 0 16 6 32 13 34 21 9 57 8 57 -2z m4645 -160 c47 -78 85
-147 85 -151 0 -20 -31 -18 -41 3 -7 12 -37 62 -67 111 l-55 88 -14 -33 -14
-34 -15 27 c-11 20 -11 33 -4 54 6 15 10 37 9 48 -5 70 24 41 116 -113z m-235
79 c0 -5 38 -72 85 -148 47 -77 85 -144 85 -149 0 -6 -7 -13 -15 -17 -16 -6
-30 13 -105 146 l-44 78 -13 -32 c-13 -29 -15 -30 -30 -16 -13 14 -14 23 -4
63 6 25 9 50 6 56 -4 5 -3 14 0 19 8 13 35 13 35 0z m-153 -90 c62 -37 153
-189 153 -253 0 -60 -54 -79 -106 -38 -49 38 -127 172 -140 240 -5 21 -1 34
15 50 26 26 37 26 78 1z m-7313 -169 c3 -5 -1 -12 -10 -15 -22 -9 -24 -8 -24
9 0 16 25 21 34 6z m-84 -31 c0 -5 -7 -10 -15 -10 -8 0 -15 5 -15 10 0 6 7 10
15 10 8 0 15 -4 15 -10z m145 -19 c7 -12 -12 -24 -25 -16 -11 7 -4 25 10 25 5
0 11 -4 15 -9z m-235 -11 c0 -5 -7 -7 -15 -4 -8 4 -15 8 -15 10 0 2 7 4 15 4
8 0 15 -4 15 -10z m150 -25 c0 -8 -4 -15 -9 -15 -13 0 -22 16 -14 24 11 11 23
6 23 -9z m-90 -30 c0 -8 -2 -15 -4 -15 -2 0 -6 7 -10 15 -3 8 -1 15 4 15 6 0
10 -7 10 -15z m75 -45 c-3 -5 -10 -10 -16 -10 -5 0 -9 5 -9 10 0 6 7 10 16 10
8 0 12 -4 9 -10z m-29 -87 c-10 -10 -19 5 -10 18 6 11 8 11 12 0 2 -7 1 -15
-2 -18z m76 -38 c0 -5 -5 -11 -11 -13 -6 -2 -11 4 -11 13 0 9 5 15 11 13 6 -2
11 -8 11 -13z m2365 -91 c-9 -9 -28 6 -21 18 4 6 10 6 17 -1 6 -6 8 -13 4 -17z
m-60 -11 c2 -6 -3 -13 -12 -16 -10 -5 -15 0 -15 14 0 21 21 22 27 2z m110 -35
c-3 -8 -6 -5 -6 6 -1 11 2 17 5 13 3 -3 4 -12 1 -19z m-137 -43 c0 -8 -2 -15
-4 -15 -2 0 -6 7 -10 15 -3 8 -1 15 4 15 6 0 10 -7 10 -15z m143 -24 c4 -17 2
-18 -14 -8 -22 14 -25 27 -5 27 7 0 16 -9 19 -19z m-1920 -12 c76 -21 154
-138 181 -270 21 -103 -6 -165 -81 -190 -102 -33 -189 48 -247 231 -20 63 -27
110 -17 110 4 0 6 11 4 23 -6 31 33 77 78 93 43 16 38 16 82 3z m1857 -9 c0
-5 -6 -10 -14 -10 -8 0 -18 5 -21 10 -3 6 3 10 14 10 12 0 21 -4 21 -10z m118
-30 c7 -11 9 -20 4 -20 -10 0 -32 22 -32 32 0 15 15 8 28 -12z m-138 -45 c0
-8 -2 -15 -4 -15 -2 0 -6 7 -10 15 -3 8 -1 15 4 15 6 0 10 -7 10 -15z m132
-27 c-7 -7 -12 -8 -12 -2 0 14 12 26 19 19 2 -3 -1 -11 -7 -17z m3168 -5 c0
-3 -7 -3 -15 1 -8 3 -15 1 -15 -4 0 -6 -8 -10 -17 -10 -15 0 -15 2 2 14 17 12
45 12 45 -1z m-5488 -5 c22 -6 50 -25 64 -41 26 -31 32 -52 11 -44 -7 3 -21
-1 -31 -9 -17 -12 -23 -10 -48 11 -86 73 -115 -27 -52 -177 50 -119 86 -154
133 -128 28 14 28 67 0 146 -11 32 -23 68 -26 79 -4 11 -11 23 -16 27 -10 6
14 38 28 38 15 0 35 -29 24 -35 -8 -5 -8 -10 0 -18 6 -6 11 -20 10 -31 0 -19
-2 -18 -11 4 -6 14 -12 20 -15 13 -2 -6 5 -28 16 -49 12 -21 21 -34 22 -29 0
6 4 1 9 -10 7 -16 8 -12 7 17 -1 20 -5 34 -9 31 -5 -2 -7 6 -7 19 1 13 -1 41
-5 63 l-6 40 25 -44 c14 -23 25 -48 25 -55 0 -7 5 -17 10 -22 6 -6 12 -31 13
-55 2 -24 6 -50 10 -56 11 -17 -9 -85 -31 -111 -36 -41 -124 -57 -173 -32 -27
14 -83 71 -99 101 -18 33 -51 141 -61 199 -7 45 -6 62 7 93 10 20 23 37 31 37
8 0 12 -4 9 -8 -10 -16 11 -34 33 -27 l22 7 -20 18 c-28 23 -27 28 12 39 44
13 44 13 89 -1z m2186 -33 c-3 -3 -9 2 -12 12 -6 14 -5 15 5 6 7 -7 10 -15 7
-18z m3102 1 c0 -2 -8 -10 -17 -17 -16 -13 -17 -12 -4 4 13 16 21 21 21 13z
m-5395 -24 c-3 -3 -11 0 -18 7 -9 10 -8 11 6 5 10 -3 15 -9 12 -12z m2425 14
c0 -2 -7 -7 -16 -10 -8 -3 -12 -2 -9 4 6 10 25 14 25 6z m2980 -26 c0 -5 -5
-10 -11 -10 -5 0 -7 5 -4 10 3 6 8 10 11 10 2 0 4 -4 4 -10z m-5672 -32 c0 -7
8 -33 17 -57 9 -25 14 -56 10 -70 -3 -16 -2 -21 3 -13 6 9 14 0 27 -30 10 -24
29 -65 41 -93 13 -27 25 -61 28 -75 2 -14 11 -42 20 -62 9 -21 16 -41 16 -46
0 -7 -62 -42 -75 -42 -7 0 -65 131 -65 146 0 21 -66 165 -73 158 -3 -3 -3 5
-1 18 5 18 -2 14 -35 -22 -22 -25 -41 -39 -41 -32 0 6 4 12 9 12 5 0 11 9 14
19 3 14 1 18 -9 14 -8 -3 -11 -9 -8 -14 3 -5 1 -9 -4 -9 -17 0 -7 54 16 90 12
19 22 28 22 20 0 -10 3 -11 8 -4 4 6 14 14 22 17 9 4 4 6 -10 4 -15 -1 -25 3
-24 11 1 6 2 21 3 32 0 13 12 23 34 29 45 13 54 13 55 -1z m5792 -173 c5 -6 5
-17 0 -25 -6 -8 -10 -13 -11 -10 0 3 -2 12 -4 20 -7 25 -8 44 -5 65 2 14 4 11
7 -10 3 -16 9 -35 13 -40z m-5943 -12 c0 -16 3 -36 8 -45 4 -10 3 -18 -2 -18
-5 0 -15 17 -21 37 -9 29 -9 39 1 45 7 4 13 8 13 8 1 0 2 -12 1 -27z m5943
-54 c0 -6 -4 -7 -10 -4 -5 3 -10 11 -10 16 0 6 5 7 10 4 6 -3 10 -11 10 -16z
m-4150 -323 c0 -3 -4 -8 -10 -11 -5 -3 -10 -1 -10 4 0 6 5 11 10 11 6 0 10 -2
10 -4z m6180 -419 c76 -132 78 -137 58 -148 -24 -13 -17 -22 -101 128 -62 112
-77 131 -77 94 0 -25 -10 -51 -19 -51 -20 0 -31 52 -20 95 6 25 8 52 5 61 -4
10 1 22 11 29 15 11 20 8 41 -28 14 -23 59 -104 102 -180z m-271 96 c7 -16 51
-95 98 -177 82 -141 85 -149 68 -162 -10 -8 -21 -14 -24 -14 -3 0 -37 57 -74
125 -38 69 -72 125 -76 125 -5 0 -12 -16 -15 -35 -8 -43 -20 -44 -36 -5 -9 22
-9 37 -1 61 6 18 11 46 11 64 0 53 29 63 49 18z m-4376 -52 c81 -31 186 -220
189 -339 2 -87 -37 -132 -115 -132 -70 0 -133 66 -187 198 -64 151 -48 243 45
274 30 9 41 9 68 -1z m4204 -50 c35 -22 81 -84 123 -169 50 -101 52 -166 5
-196 -54 -36 -124 25 -197 173 -50 101 -56 162 -19 192 29 24 48 24 88 0z
m-4504 -85 c62 -25 135 -135 171 -255 41 -138 -3 -221 -115 -221 -38 0 -48 6
-89 48 -61 63 -121 201 -128 292 -4 57 -1 69 19 94 21 27 69 55 97 56 7 0 27
-6 45 -14z m-303 -188 c18 -46 62 -147 97 -226 34 -79 63 -147 63 -153 0 -10
-67 -46 -73 -38 -2 2 -34 77 -72 167 -38 89 -72 162 -76 162 -4 0 -12 -13 -19
-29 -6 -16 -22 -39 -34 -50 l-23 -21 -15 39 c-13 33 -14 42 -3 51 21 18 55 97
55 129 0 23 6 32 28 39 15 6 29 11 33 11 3 1 20 -36 39 -81z m-975 -595 c50
-125 91 -233 93 -240 3 -12 -63 -51 -72 -42 -6 6 -84 194 -114 277 -15 39 -30
72 -33 72 -4 0 -9 -10 -13 -22 -3 -13 -18 -39 -34 -58 l-29 -34 -17 33 c-17
32 -14 47 15 71 7 6 36 86 44 123 4 20 10 27 21 23 8 -3 13 -2 9 3 -5 9 10 19
30 20 6 0 51 -102 100 -226z m-408 49 c51 -27 114 -126 69 -109 -8 3 -16 2
-18 -2 -2 -5 -13 -11 -24 -15 -16 -5 -26 0 -38 19 -9 13 -29 31 -44 39 -26 14
-29 13 -46 -9 -10 -13 -24 -21 -32 -18 -10 4 -12 0 -7 -13 5 -13 3 -15 -7 -9
-8 5 -11 4 -7 -2 4 -6 0 -13 -8 -16 -9 -4 -12 -1 -8 9 4 10 0 12 -11 8 -24 -9
-20 31 7 68 23 32 88 68 122 67 11 0 34 -8 52 -17z m-382 -172 c3 -16 22 -65
41 -110 19 -45 34 -83 34 -86 0 -2 -21 -4 -46 -4 -49 0 -73 17 -74 53 0 27
-16 20 -39 -18 -13 -22 -28 -35 -41 -35 -12 0 -18 5 -15 10 3 6 1 10 -4 10 -6
0 -11 -6 -11 -12 0 -9 -4 -8 -10 2 -11 17 -14 37 -4 27 8 -7 35 18 33 30 -1 4
7 28 19 53 12 25 22 54 22 65 0 26 10 38 40 52 30 13 46 2 55 -37z m302 -90
c10 -22 12 -35 5 -38 -5 -1 1 -14 14 -27 36 -36 30 -45 -28 -45 -53 0 -53 0
-69 43 -28 70 -41 131 -37 168 l4 34 8 -32 c10 -37 26 -44 26 -12 0 12 8 28
18 35 15 11 18 7 30 -39 7 -29 20 -68 29 -87z m187 124 c3 -8 2 -12 -4 -9 -6
3 -10 10 -10 16 0 14 7 11 14 -7z m-71 -21 c-3 -7 -6 -13 -8 -13 -2 0 -5 6 -8
13 -3 8 1 14 8 14 7 0 11 -6 8 -14z m101 -40 c6 -18 1 -25 -23 -37 -22 -12
-28 -21 -24 -36 3 -11 9 -20 13 -20 4 0 12 -18 18 -40 9 -38 9 -40 -14 -40
-17 0 -24 6 -24 20 0 11 -9 47 -21 81 -23 65 -19 80 23 86 13 2 25 8 27 14 4
14 17 0 25 -28z m-4 -63 c0 -5 -5 -10 -11 -10 -5 0 -7 5 -4 10 3 6 8 10 11 10
2 0 4 -4 4 -10z"/>
<path d="M1963 10515 c-7 -21 34 -134 60 -162 22 -25 76 -32 78 -10 4 42 -33
137 -65 170 -22 21 -65 22 -73 2z"/>
<path d="M4743 10485 c-8 -21 55 -144 84 -162 25 -16 53 -11 53 9 0 7 -13 41
-29 74 -38 80 -92 119 -108 79z"/>
<path d="M5013 10493 c-20 -7 -16 -33 15 -98 31 -65 72 -99 94 -77 9 9 9 21
-1 50 -27 77 -78 136 -108 125z"/>
<path d="M11590 10391 c0 -6 3 -11 8 -11 4 0 16 -16 27 -36 20 -38 50 -60 59
-45 8 13 -56 95 -77 99 -9 2 -17 -1 -17 -7z"/>
<path d="M10493 9593 c-7 -3 -13 -11 -13 -19 0 -9 5 -12 10 -9 6 3 11 0 12 -7
0 -7 2 -17 2 -23 2 -14 74 -85 86 -85 19 0 10 30 -25 84 -34 54 -50 67 -72 59z"/>
<path d="M5770 9398 c0 -35 55 -142 84 -166 31 -24 56 -19 56 9 0 25 -55 134
-80 159 -28 28 -60 26 -60 -2z"/>
<path d="M5506 9394 c-9 -23 60 -161 89 -180 28 -18 55 -13 55 11 0 24 -55
138 -79 163 -25 26 -56 29 -65 6z"/>
<path d="M5239 9388 c-4 -43 42 -147 79 -181 24 -22 55 -19 60 6 5 23 -38 114
-72 155 -28 32 -65 43 -67 20z"/>
<path d="M2730 9320 c8 -5 27 -10 42 -10 15 0 33 -6 41 -14 9 -9 19 -11 28 -5
11 7 11 9 -3 9 -9 0 -23 6 -30 13 -7 6 -31 13 -53 14 -29 2 -36 0 -25 -7z"/>
<path d="M2730 9266 c0 -37 48 -154 71 -172 27 -22 56 -25 73 -9 18 19 14 50
-16 109 -10 21 -17 45 -14 53 3 8 2 12 -3 9 -5 -3 -16 5 -25 19 -12 19 -25 25
-51 25 -33 0 -35 -2 -35 -34z"/>
<path d="M2700 9255 c0 -8 4 -15 10 -15 5 0 7 7 4 15 -4 8 -8 15 -10 15 -2 0
-4 -7 -4 -15z"/>
<path d="M2678 9203 c7 -3 16 -2 19 1 4 3 -2 6 -13 5 -11 0 -14 -3 -6 -6z"/>
<path d="M2720 9180 c-9 -6 -10 -10 -3 -10 6 0 15 5 18 10 8 12 4 12 -15 0z"/>
<path d="M2880 9170 c0 -5 5 -10 11 -10 5 0 7 5 4 10 -3 6 -8 10 -11 10 -2 0
-4 -4 -4 -10z"/>
<path d="M2381 9256 c-7 -8 -8 -17 -3 -20 6 -3 12 3 15 14 6 24 4 25 -12 6z"/>
<path d="M11190 8713 c0 -5 9 -23 20 -41 23 -38 25 -46 8 -36 -8 4 -10 3 -5
-2 5 -5 12 -9 15 -9 4 0 19 -13 34 -28 43 -43 67 -28 32 21 -8 12 -13 26 -10
30 2 4 0 14 -6 22 -8 12 -9 12 -4 -2 9 -28 0 -21 -23 17 -13 22 -28 35 -41 35
-11 0 -20 -3 -20 -7z"/>
<path d="M11050 8705 c0 -13 41 -85 65 -114 27 -31 55 -41 55 -19 0 15 -59
109 -79 126 -15 12 -41 17 -41 7z"/>
<path d="M8680 8469 c0 -20 40 -109 63 -140 7 -9 22 -21 34 -27 44 -24 42 27
-4 101 -50 81 -93 112 -93 66z"/>
<path d="M8177 8438 c-10 -36 -8 -48 8 -48 16 0 20 36 6 58 -6 10 -10 8 -14
-10z"/>
<path d="M8465 8459 c-9 -14 40 -113 77 -155 62 -70 77 -28 26 68 -40 76 -86
115 -103 87z"/>
<path d="M7367 8363 c-4 -3 -7 -13 -7 -22 0 -21 59 -133 88 -166 25 -29 55
-30 60 -2 5 25 -54 137 -89 170 -30 28 -41 32 -52 20z"/>
<path d="M8317 7784 c-15 -15 14 -45 41 -42 40 5 38 42 -3 46 -17 2 -34 0 -38
-4z"/>
<path d="M8362 7688 c2 -19 10 -24 42 -26 21 -2 44 2 50 8 16 17 -20 40 -62
40 -29 0 -33 -3 -30 -22z"/>
<path d="M9970 7623 c-19 -3 -39 -9 -45 -15 -7 -7 -7 -9 1 -5 5 3 21 -15 35
-41 39 -76 52 -86 98 -78 97 15 115 48 60 111 -33 37 -48 40 -149 28z"/>
<path d="M9926 7575 c-9 -26 -7 -32 5 -12 6 10 9 21 6 23 -2 3 -7 -2 -11 -11z"/>
<path d="M9936 7543 c-6 -14 -5 -15 5 -6 7 7 10 15 7 18 -3 3 -9 -2 -12 -12z"/>
<path d="M9070 7420 c0 -5 14 -59 30 -120 17 -61 30 -113 30 -115 0 -8 36 -6
90 6 27 6 50 14 50 17 0 4 -17 25 -38 47 -21 22 -66 70 -100 107 -34 37 -62
63 -62 58z"/>
<path d="M3467 6586 c-101 -38 -132 -129 -87 -260 45 -133 109 -210 198 -240
124 -43 266 9 292 105 9 31 7 54 -6 107 -33 133 -98 233 -178 274 -52 27 -165
34 -219 14z"/>
<path d="M8135 6171 c-16 -3 -29 -10 -27 -14 1 -4 5 -20 8 -36 5 -22 10 -27
25 -24 10 3 19 14 19 25 0 15 5 18 20 13 29 -9 42 2 30 26 -11 20 -23 21 -75
10z"/>
<path d="M8156 6061 c-8 -12 17 -61 30 -61 20 0 23 13 8 41 -15 29 -28 36 -38
20z"/>
<path d="M8545 6045 c-5 -2 -29 -9 -53 -15 l-42 -11 42 -77 c23 -42 43 -79 44
-80 8 -11 110 22 140 46 44 35 44 64 0 108 -29 29 -41 34 -77 33 -24 0 -48 -2
-54 -4z"/>
<path d="M8410 4282 c0 -7 6 -12 13 -13 6 0 5 -3 -5 -7 -14 -6 -12 -10 9 -26
l25 -19 -7 24 c-9 29 -35 60 -35 41z"/>
<path d="M8385 4270 c4 -6 -7 -10 -24 -10 -28 0 -31 -3 -31 -34 0 -41 77 -200
115 -238 15 -16 22 -28 15 -28 -7 0 -11 -3 -7 -6 10 -11 67 36 67 56 0 10 -6
30 -14 44 -16 31 -10 90 6 61 6 -9 8 -26 5 -37 -3 -11 -3 -17 0 -14 3 3 12 -2
19 -12 16 -23 24 -14 17 21 -4 22 -8 26 -15 15 -7 -9 -8 -7 -5 10 3 12 1 20
-3 17 -11 -7 -23 31 -15 45 3 5 3 10 0 10 -3 0 -12 -14 -19 -30 l-13 -31 -32
63 c-18 35 -39 66 -47 71 -7 4 -11 14 -8 22 4 8 1 15 -6 15 -6 0 -8 -4 -5 -10z"/>
<path d="M8312 4240 c0 -14 2 -19 5 -12 2 6 2 18 0 25 -3 6 -5 1 -5 -13z"/>
<path d="M8341 4116 c7 -15 15 -23 17 -16 3 7 -3 19 -13 28 -15 16 -16 15 -4
-12z"/>
<path d="M8360 4074 c1 -16 29 -60 29 -44 0 8 -6 24 -14 34 -8 11 -15 16 -15
10z"/>
<path d="M8417 3978 c8 -13 9 -18 12 -38 0 -5 5 -10 10 -10 6 0 6 12 0 30 -6
17 -15 30 -21 30 -5 0 -6 -6 -1 -12z"/>
<path d="M8059 4154 c-14 -17 3 -76 49 -169 48 -96 77 -124 113 -105 28 16 24
47 -22 141 -67 138 -105 175 -140 133z"/>
<path d="M12040 3918 c0 -24 60 -136 96 -181 27 -33 58 -39 62 -12 3 22 -88
182 -115 203 -26 19 -43 14 -43 -10z"/>
<path d="M5238 3273 c7 -3 16 -2 19 1 4 3 -2 6 -13 5 -11 0 -14 -3 -6 -6z"/>
<path d="M5218 3229 c-35 -20 -23 -94 38 -226 38 -83 68 -109 108 -94 21 9 26
17 26 46 0 63 -83 255 -119 275 -24 12 -31 12 -53 -1z"/>
<path d="M4857 3173 c-38 -10 -9 -28 45 -28 33 0 62 -6 74 -15 19 -14 19 -14
0 8 -11 12 -27 22 -37 22 -10 0 -21 5 -24 10 -6 10 -26 11 -58 3z m41 -20
c-10 -2 -26 -2 -35 0 -10 3 -2 5 17 5 19 0 27 -2 18 -5z"/>
<path d="M4945 3131 c6 -11 4 -13 -10 -7 -18 7 -18 6 0 -14 10 -11 19 -20 20
-20 6 0 -3 41 -10 47 -4 5 -4 2 0 -6z"/>
<path d="M4985 3051 c-3 -5 -1 -12 4 -15 5 -3 11 1 15 9 6 16 -9 21 -19 6z"/>
<path d="M5077 2926 c-10 -26 -8 -43 3 -26 8 12 10 12 10 1 0 -8 2 -12 5 -9 3
3 2 15 -3 28 -8 20 -9 21 -15 6z"/>
<path d="M4461 2961 c-12 -8 -12 -11 1 -25 14 -14 16 -13 14 9 0 14 -1 25 -1
25 0 0 -6 -4 -14 -9z"/>
<path d="M4563 2914 c5 -7 12 -25 17 -41 7 -23 8 -24 9 -7 1 12 -7 30 -16 41
-10 10 -14 13 -10 7z"/>
<path d="M4600 2844 c0 -8 5 -12 10 -9 6 3 10 10 10 16 0 5 -4 9 -10 9 -5 0
-10 -7 -10 -16z"/>
<path d="M4595 2809 c-4 -6 -5 -12 -2 -15 2 -3 7 2 10 11 7 17 1 20 -8 4z"/>
<path d="M7672 2058 c-21 -21 -13 -64 29 -162 46 -107 76 -146 113 -146 48 0
43 62 -15 189 -51 113 -94 152 -127 119z"/>
<path d="M11887 2043 c-16 -15 -5 -57 34 -130 59 -113 109 -160 126 -117 7 19
-76 189 -112 227 -26 28 -37 32 -48 20z"/>
<path d="M7362 1928 c-25 -25 -6 -101 57 -226 33 -65 62 -95 87 -90 48 9 42
69 -21 204 -48 104 -91 144 -123 112z"/>
<path d="M5975 1294 c4 -15 -1 -24 -20 -34 -14 -7 -25 -17 -25 -22 0 -11 33 6
49 26 10 11 10 19 1 33 -10 16 -10 16 -5 -3z"/>
<path d="M5632 1214 c-7 -14 -8 -23 -2 -19 15 9 32 45 22 45 -5 0 -14 -12 -20
-26z"/>
<path d="M5240 929 c0 -5 5 -7 10 -4 6 3 10 8 10 11 0 2 -4 4 -10 4 -5 0 -10
-5 -10 -11z"/>
<path d="M5605 1110 c-3 -5 -1 -10 4 -10 6 0 11 5 11 10 0 6 -2 10 -4 10 -3 0
-8 -4 -11 -10z"/>
<path d="M43 873 c9 -2 25 -2 35 0 9 3 1 5 -18 5 -19 0 -27 -2 -17 -5z"/>
<path d="M153 873 c9 -2 23 -2 30 0 6 3 -1 5 -18 5 -16 0 -22 -2 -12 -5z"/>
<path d="M883 873 c9 -2 23 -2 30 0 6 3 -1 5 -18 5 -16 0 -22 -2 -12 -5z"/>
<path d="M1003 873 c9 -2 23 -2 30 0 6 3 -1 5 -18 5 -16 0 -22 -2 -12 -5z"/>
<path d="M1123 873 c9 -2 23 -2 30 0 6 3 -1 5 -18 5 -16 0 -22 -2 -12 -5z"/>
<path d="M1243 873 c9 -2 25 -2 35 0 9 3 1 5 -18 5 -19 0 -27 -2 -17 -5z"/>
<path d="M1353 873 c9 -2 25 -2 35 0 9 3 1 5 -18 5 -19 0 -27 -2 -17 -5z"/>
<path d="M1483 873 c9 -2 25 -2 35 0 9 3 1 5 -18 5 -19 0 -27 -2 -17 -5z"/>
<path d="M1593 873 c9 -2 25 -2 35 0 9 3 1 5 -18 5 -19 0 -27 -2 -17 -5z"/>
<path d="M1723 873 c9 -2 25 -2 35 0 9 3 1 5 -18 5 -19 0 -27 -2 -17 -5z"/>
<path d="M1833 873 c9 -2 25 -2 35 0 9 3 1 5 -18 5 -19 0 -27 -2 -17 -5z"/>
<path d="M1963 873 c9 -2 25 -2 35 0 9 3 1 5 -18 5 -19 0 -27 -2 -17 -5z"/>
<path d="M2073 873 c9 -2 25 -2 35 0 9 3 1 5 -18 5 -19 0 -27 -2 -17 -5z"/>
<path d="M2203 873 c9 -2 25 -2 35 0 9 3 1 5 -18 5 -19 0 -27 -2 -17 -5z"/>
<path d="M2313 873 c9 -2 25 -2 35 0 9 3 1 5 -18 5 -19 0 -27 -2 -17 -5z"/>
<path d="M2443 873 c9 -2 25 -2 35 0 9 3 1 5 -18 5 -19 0 -27 -2 -17 -5z"/>
<path d="M2553 873 c9 -2 25 -2 35 0 9 3 1 5 -18 5 -19 0 -27 -2 -17 -5z"/>
<path d="M2683 873 c9 -2 25 -2 35 0 9 3 1 5 -18 5 -19 0 -27 -2 -17 -5z"/>
<path d="M2793 873 c9 -2 25 -2 35 0 9 3 1 5 -18 5 -19 0 -27 -2 -17 -5z"/>
<path d="M2923 873 c9 -2 25 -2 35 0 9 3 1 5 -18 5 -19 0 -27 -2 -17 -5z"/>
<path d="M3033 873 c9 -2 25 -2 35 0 9 3 1 5 -18 5 -19 0 -27 -2 -17 -5z"/>
<path d="M3163 873 c9 -2 25 -2 35 0 9 3 1 5 -18 5 -19 0 -27 -2 -17 -5z"/>
<path d="M3273 873 c9 -2 25 -2 35 0 9 3 1 5 -18 5 -19 0 -27 -2 -17 -5z"/>
<path d="M3403 873 c9 -2 25 -2 35 0 9 3 1 5 -18 5 -19 0 -27 -2 -17 -5z"/>
<path d="M3513 873 c9 -2 25 -2 35 0 9 3 1 5 -18 5 -19 0 -27 -2 -17 -5z"/>
<path d="M3643 873 c9 -2 25 -2 35 0 9 3 1 5 -18 5 -19 0 -27 -2 -17 -5z"/>
<path d="M3753 873 c9 -2 25 -2 35 0 9 3 1 5 -18 5 -19 0 -27 -2 -17 -5z"/>
<path d="M3883 873 c9 -2 25 -2 35 0 9 3 1 5 -18 5 -19 0 -27 -2 -17 -5z"/>
<path d="M3993 873 c9 -2 25 -2 35 0 9 3 1 5 -18 5 -19 0 -27 -2 -17 -5z"/>
<path d="M4123 873 c9 -2 25 -2 35 0 9 3 1 5 -18 5 -19 0 -27 -2 -17 -5z"/>
<path d="M4233 873 c9 -2 25 -2 35 0 9 3 1 5 -18 5 -19 0 -27 -2 -17 -5z"/>
<path d="M4363 873 c9 -2 25 -2 35 0 9 3 1 5 -18 5 -19 0 -27 -2 -17 -5z"/>
<path d="M4473 873 c9 -2 25 -2 35 0 9 3 1 5 -18 5 -19 0 -27 -2 -17 -5z"/>
<path d="M4603 873 c9 -2 25 -2 35 0 9 3 1 5 -18 5 -19 0 -27 -2 -17 -5z"/>
<path d="M4713 873 c9 -2 25 -2 35 0 9 3 1 5 -18 5 -19 0 -27 -2 -17 -5z"/>
<path d="M4843 873 c9 -2 25 -2 35 0 9 3 1 5 -18 5 -19 0 -27 -2 -17 -5z"/>
<path d="M4953 873 c9 -2 25 -2 35 0 9 3 1 5 -18 5 -19 0 -27 -2 -17 -5z"/>
<path d="M5083 873 c9 -2 25 -2 35 0 9 3 1 5 -18 5 -19 0 -27 -2 -17 -5z"/>
<path d="M5193 873 c9 -2 25 -2 35 0 9 3 1 5 -18 5 -19 0 -27 -2 -17 -5z"/>
<path d="M5323 873 c9 -2 25 -2 35 0 9 3 1 5 -18 5 -19 0 -27 -2 -17 -5z"/>
<path d="M5433 873 c9 -2 25 -2 35 0 9 3 1 5 -18 5 -19 0 -27 -2 -17 -5z"/>
<path d="M5563 873 c9 -2 25 -2 35 0 9 3 1 5 -18 5 -19 0 -27 -2 -17 -5z"/>
<path d="M5673 873 c9 -2 25 -2 35 0 9 3 1 5 -18 5 -19 0 -27 -2 -17 -5z"/>
<path d="M5803 873 c9 -2 25 -2 35 0 9 3 1 5 -18 5 -19 0 -27 -2 -17 -5z"/>
<path d="M5913 873 c9 -2 25 -2 35 0 9 3 1 5 -18 5 -19 0 -27 -2 -17 -5z"/>
<path d="M6043 873 c9 -2 25 -2 35 0 9 3 1 5 -18 5 -19 0 -27 -2 -17 -5z"/>
<path d="M6153 873 c9 -2 25 -2 35 0 9 3 1 5 -18 5 -19 0 -27 -2 -17 -5z"/>
<path d="M6283 873 c9 -2 25 -2 35 0 9 3 1 5 -18 5 -19 0 -27 -2 -17 -5z"/>
<path d="M6393 873 c9 -2 25 -2 35 0 9 3 1 5 -18 5 -19 0 -27 -2 -17 -5z"/>
<path d="M6523 873 c9 -2 25 -2 35 0 9 3 1 5 -18 5 -19 0 -27 -2 -17 -5z"/>
<path d="M6633 873 c9 -2 25 -2 35 0 9 3 1 5 -18 5 -19 0 -27 -2 -17 -5z"/>
<path d="M6763 873 c9 -2 25 -2 35 0 9 3 1 5 -18 5 -19 0 -27 -2 -17 -5z"/>
<path d="M6873 873 c9 -2 25 -2 35 0 9 3 1 5 -18 5 -19 0 -27 -2 -17 -5z"/>
<path d="M7003 873 c9 -2 25 -2 35 0 9 3 1 5 -18 5 -19 0 -27 -2 -17 -5z"/>
<path d="M7113 873 c9 -2 25 -2 35 0 9 3 1 5 -18 5 -19 0 -27 -2 -17 -5z"/>
<path d="M7243 873 c9 -2 25 -2 35 0 9 3 1 5 -18 5 -19 0 -27 -2 -17 -5z"/>
<path d="M7353 873 c9 -2 25 -2 35 0 9 3 1 5 -18 5 -19 0 -27 -2 -17 -5z"/>
<path d="M7483 873 c9 -2 25 -2 35 0 9 3 1 5 -18 5 -19 0 -27 -2 -17 -5z"/>
<path d="M7593 873 c9 -2 25 -2 35 0 9 3 1 5 -18 5 -19 0 -27 -2 -17 -5z"/>
<path d="M7723 873 c9 -2 25 -2 35 0 9 3 1 5 -18 5 -19 0 -27 -2 -17 -5z"/>
<path d="M7833 873 c9 -2 25 -2 35 0 9 3 1 5 -18 5 -19 0 -27 -2 -17 -5z"/>
<path d="M7963 873 c9 -2 25 -2 35 0 9 3 1 5 -18 5 -19 0 -27 -2 -17 -5z"/>
<path d="M8073 873 c9 -2 25 -2 35 0 9 3 1 5 -18 5 -19 0 -27 -2 -17 -5z"/>
<path d="M8203 873 c9 -2 25 -2 35 0 9 3 1 5 -18 5 -19 0 -27 -2 -17 -5z"/>
<path d="M8323 873 c9 -2 25 -2 35 0 9 3 1 5 -18 5 -19 0 -27 -2 -17 -5z"/>
<path d="M8563 873 c9 -2 25 -2 35 0 9 3 1 5 -18 5 -19 0 -27 -2 -17 -5z"/>
<path d="M8683 873 c9 -2 23 -2 30 0 6 3 -1 5 -18 5 -16 0 -22 -2 -12 -5z"/>
<path d="M8803 873 c9 -2 23 -2 30 0 6 3 -1 5 -18 5 -16 0 -22 -2 -12 -5z"/>
<path d="M8923 873 c9 -2 25 -2 35 0 9 3 1 5 -18 5 -19 0 -27 -2 -17 -5z"/>
<path d="M9033 873 c9 -2 25 -2 35 0 9 3 1 5 -18 5 -19 0 -27 -2 -17 -5z"/>
<path d="M9163 873 c9 -2 25 -2 35 0 9 3 1 5 -18 5 -19 0 -27 -2 -17 -5z"/>
<path d="M9273 873 c9 -2 25 -2 35 0 9 3 1 5 -18 5 -19 0 -27 -2 -17 -5z"/>
<path d="M9403 873 c9 -2 25 -2 35 0 9 3 1 5 -18 5 -19 0 -27 -2 -17 -5z"/>
<path d="M9513 873 c9 -2 25 -2 35 0 9 3 1 5 -18 5 -19 0 -27 -2 -17 -5z"/>
<path d="M9643 873 c9 -2 25 -2 35 0 9 3 1 5 -18 5 -19 0 -27 -2 -17 -5z"/>
<path d="M9753 873 c9 -2 25 -2 35 0 9 3 1 5 -18 5 -19 0 -27 -2 -17 -5z"/>
<path d="M9883 873 c9 -2 25 -2 35 0 9 3 1 5 -18 5 -19 0 -27 -2 -17 -5z"/>
<path d="M9993 873 c9 -2 25 -2 35 0 9 3 1 5 -18 5 -19 0 -27 -2 -17 -5z"/>
<path d="M10123 873 c9 -2 25 -2 35 0 9 3 1 5 -18 5 -19 0 -27 -2 -17 -5z"/>
<path d="M10233 873 c9 -2 25 -2 35 0 9 3 1 5 -18 5 -19 0 -27 -2 -17 -5z"/>
<path d="M10363 873 c9 -2 25 -2 35 0 9 3 1 5 -18 5 -19 0 -27 -2 -17 -5z"/>
<path d="M10473 873 c9 -2 25 -2 35 0 9 3 1 5 -18 5 -19 0 -27 -2 -17 -5z"/>
<path d="M10603 873 c9 -2 25 -2 35 0 9 3 1 5 -18 5 -19 0 -27 -2 -17 -5z"/>
<path d="M10713 873 c9 -2 25 -2 35 0 9 3 1 5 -18 5 -19 0 -27 -2 -17 -5z"/>
<path d="M10843 873 c9 -2 25 -2 35 0 9 3 1 5 -18 5 -19 0 -27 -2 -17 -5z"/>
<path d="M10953 873 c9 -2 25 -2 35 0 9 3 1 5 -18 5 -19 0 -27 -2 -17 -5z"/>
<path d="M11083 873 c9 -2 25 -2 35 0 9 3 1 5 -18 5 -19 0 -27 -2 -17 -5z"/>
<path d="M11193 873 c9 -2 25 -2 35 0 9 3 1 5 -18 5 -19 0 -27 -2 -17 -5z"/>
<path d="M11323 873 c9 -2 25 -2 35 0 9 3 1 5 -18 5 -19 0 -27 -2 -17 -5z"/>
<path d="M11433 873 c9 -2 25 -2 35 0 9 3 1 5 -18 5 -19 0 -27 -2 -17 -5z"/>
<path d="M11563 873 c9 -2 25 -2 35 0 9 3 1 5 -18 5 -19 0 -27 -2 -17 -5z"/>
<path d="M11673 873 c9 -2 25 -2 35 0 9 3 1 5 -18 5 -19 0 -27 -2 -17 -5z"/>
<path d="M11803 873 c9 -2 25 -2 35 0 9 3 1 5 -18 5 -19 0 -27 -2 -17 -5z"/>
<path d="M11913 873 c9 -2 25 -2 35 0 9 3 1 5 -18 5 -19 0 -27 -2 -17 -5z"/>
<path d="M12043 873 c9 -2 25 -2 35 0 9 3 1 5 -18 5 -19 0 -27 -2 -17 -5z"/>
<path d="M12153 873 c9 -2 25 -2 35 0 9 3 1 5 -18 5 -19 0 -27 -2 -17 -5z"/>
<path d="M12283 873 c9 -2 25 -2 35 0 9 3 1 5 -18 5 -19 0 -27 -2 -17 -5z"/>
<path d="M12393 873 c9 -2 25 -2 35 0 9 3 1 5 -18 5 -19 0 -27 -2 -17 -5z"/>
<path d="M12523 873 c9 -2 25 -2 35 0 9 3 1 5 -18 5 -19 0 -27 -2 -17 -5z"/>
<path d="M12633 873 c9 -2 25 -2 35 0 9 3 1 5 -18 5 -19 0 -27 -2 -17 -5z"/>
<path d="M12763 873 c9 -2 25 -2 35 0 9 3 1 5 -18 5 -19 0 -27 -2 -17 -5z"/>
<path d="M12873 873 c9 -2 25 -2 35 0 9 3 1 5 -18 5 -19 0 -27 -2 -17 -5z"/>
<path d="M2113 763 c-7 -2 -13 -13 -13 -23 0 -10 -6 -21 -12 -23 -10 -4 -10
-6 0 -6 8 -1 13 -20 14 -53 l2 -53 3 48 c3 30 10 50 19 54 12 4 12 7 -3 18
-17 13 -17 14 0 20 9 4 17 11 17 16 0 10 -8 10 -27 2z"/>
<path d="M990 686 c0 -83 5 -88 70 -75 43 10 60 32 60 79 0 50 -24 70 -83 70
l-47 0 0 -74z m91 54 c13 -8 19 -21 19 -47 0 -45 -24 -73 -62 -73 -28 0 -28 0
-28 65 0 63 1 65 26 65 14 0 34 -5 45 -10z"/>
<path d="M1593 685 c0 -44 2 -61 4 -37 2 23 2 59 0 80 -2 20 -4 1 -4 -43z"/>
<path d="M1980 737 c0 -24 -3 -25 -33 -20 -45 7 -63 -17 -58 -78 1 -21 47 -42
69 -30 9 4 22 7 27 5 6 -3 9 23 7 68 -3 68 -12 111 -12 55z m-9 -48 c15 -29
-3 -69 -31 -69 -28 0 -46 40 -31 69 7 11 20 21 31 21 11 0 24 -10 31 -21z"/>
<path d="M1155 696 c-35 -53 19 -115 71 -81 27 17 33 72 12 93 -21 21 -66 14
-83 -12z m69 -2 c19 -18 19 -16 6 -48 -16 -43 -70 -28 -70 19 0 41 36 58 64
29z"/>
<path d="M1288 665 c17 -63 38 -71 48 -20 9 50 21 52 29 5 9 -52 31 -52 45 1
6 22 14 47 17 55 3 8 0 14 -6 14 -6 0 -11 -6 -11 -14 0 -8 -5 -27 -11 -43
l-12 -28 -12 39 c-16 55 -30 55 -45 -1 l-13 -48 -15 48 c-21 65 -33 59 -14 -8z"/>
<path d="M1461 661 c1 -53 2 -54 8 -16 8 48 17 65 36 65 18 0 24 -10 31 -56 9
-59 16 -55 12 6 l-3 55 -42 1 -43 1 1 -56z"/>
<path d="M1640 701 c-26 -49 -4 -93 47 -93 47 0 71 62 37 96 -22 23 -71 20
-84 -3z m69 -5 c7 -8 11 -27 9 -43 -3 -24 -8 -28 -33 -28 -27 0 -30 4 -33 34
-5 46 31 69 57 37z"/>
<path d="M1775 709 c-4 -6 -4 -13 0 -17 3 -3 10 0 14 7 11 17 46 10 46 -9 0
-8 -11 -17 -25 -18 -50 -7 -67 -42 -30 -62 13 -7 26 -8 37 -1 11 6 24 6 35 0
15 -8 16 -5 12 28 -11 82 -12 83 -49 83 -18 0 -37 -5 -40 -11z m63 -66 c-4
-22 -58 -31 -58 -10 0 20 10 27 37 27 18 0 24 -5 21 -17z"/>
<path d="M2161 660 l1 -55 9 40 c5 22 20 48 32 57 l22 17 -32 -2 -33 -2 1 -55z"/>
<path d="M2242 708 c-7 -7 -12 -27 -12 -45 0 -63 76 -80 100 -22 10 24 10 33
-4 54 -18 27 -63 34 -84 13z m66 -10 c7 -7 12 -21 12 -33 0 -46 -53 -62 -71
-21 -21 45 26 87 59 54z"/>
<path d="M2360 663 c0 -62 17 -72 22 -12 2 27 9 46 21 53 23 15 36 -5 38 -59
l2 -40 7 43 c6 42 24 65 45 59 6 -2 11 -25 13 -50 2 -26 7 -47 13 -47 11 0 12
80 1 96 -4 7 -38 11 -84 11 l-78 0 0 -54z"/>
<path d="M10778 683 c6 -2 18 -2 25 0 6 3 1 5 -13 5 -14 0 -19 -2 -12 -5z"/>
<path d="M10878 672 c9 -10 19 -17 21 -16 6 5 -20 34 -30 34 -5 0 -1 -8 9 -18z"/>
<path d="M11061 658 c-1 -32 -5 -37 -28 -41 l-28 -4 27 -2 c16 0 28 -8 30 -18
8 -36 14 20 7 62 l-6 40 -2 -37z"/>
<path d="M11120 675 c-8 -9 -9 -15 -2 -15 6 0 13 -19 15 -42 3 -37 4 -35 5 15
1 31 0 57 -2 57 -2 0 -9 -7 -16 -15z"/>
<path d="M11279 673 c-13 -17 -12 -17 5 -3 16 13 20 12 32 -5 8 -10 14 -14 14
-9 0 11 -21 34 -31 34 -4 0 -13 -8 -20 -17z"/>
<path d="M11363 683 c9 -2 25 -2 35 0 9 3 1 5 -18 5 -19 0 -27 -2 -17 -5z"/>
<path d="M10843 638 c0 -51 19 -70 44 -45 18 17 6 47 -17 47 -11 0 -20 9 -23
23 -2 12 -4 1 -4 -25z m43 -19 c10 -17 -13 -36 -27 -22 -12 12 -4 33 11 33 5
0 12 -5 16 -11z"/>
<path d="M10954 668 c-4 -7 -3 -8 4 -4 8 5 12 -1 12 -18 0 -19 -6 -26 -27 -29
l-28 -4 28 -2 c18 -1 27 -7 28 -18 0 -17 1 -16 8 0 9 23 2 87 -10 87 -4 0 -11
-5 -15 -12z"/>
<path d="M11228 651 c4 -26 1 -30 -24 -34 l-29 -4 28 -2 c18 -1 27 -7 28 -18
0 -17 1 -16 8 0 8 22 2 87 -8 87 -4 0 -6 -13 -3 -29z"/>
<path d="M10762 650 c0 -14 2 -19 5 -12 2 6 2 18 0 25 -3 6 -5 1 -5 -13z"/>
<path d="M11385 649 c-4 -6 -5 -12 -2 -15 2 -3 7 2 10 11 7 17 1 20 -8 4z"/>
<path d="M10793 640 c9 -6 17 -17 17 -25 0 -8 -8 -19 -17 -24 -10 -6 -13 -11
-7 -11 6 0 17 7 25 16 14 18 3 45 -22 51 -8 3 -7 0 4 -7z"/>
<path d="M11310 625 c6 -8 9 -19 5 -25 -9 -14 -32 -13 -38 3 -4 9 -6 9 -6 -1
-1 -20 29 -26 45 -10 15 15 10 48 -8 48 -6 0 -5 -6 2 -15z"/>
<path d="M11371 604 c0 -11 3 -14 6 -6 3 7 2 16 -1 19 -3 4 -6 -2 -5 -13z"/>
<path d="M990 410 l0 -80 45 0 c59 0 95 32 95 84 0 51 -31 76 -92 76 l-48 0 0
-80z m73 51 c52 -20 41 -101 -13 -101 -30 0 -30 1 -30 55 0 57 3 61 43 46z"/>
<path d="M1920 480 c0 -5 7 -10 15 -10 8 0 15 5 15 10 0 6 -7 10 -15 10 -8 0
-15 -4 -15 -10z"/>
<path d="M1850 467 c0 -9 -6 -17 -12 -20 -10 -4 -10 -7 0 -18 6 -7 12 -32 12
-56 0 -39 2 -43 25 -43 14 0 25 5 25 10 0 6 -4 10 -9 10 -5 0 -13 14 -16 32
-6 23 -3 35 9 43 20 15 21 25 1 25 -8 0 -14 5 -12 11 1 6 -4 14 -10 16 -7 3
-13 -2 -13 -10z"/>
<path d="M1160 390 c0 -33 4 -60 10 -60 6 0 10 12 10 26 0 33 17 64 35 64 8 0
15 7 15 15 0 18 -21 20 -38 3 -9 -9 -12 -9 -12 0 0 7 -4 12 -10 12 -6 0 -10
-27 -10 -60z"/>
<path d="M1256 434 c-9 -8 -16 -31 -16 -50 0 -40 31 -61 74 -50 36 9 34 29 -2
21 -20 -4 -33 -1 -42 10 -11 13 -7 15 34 15 50 0 57 10 30 48 -18 26 -56 29
-78 6z m48 -10 c27 -10 18 -24 -15 -24 -27 0 -30 2 -19 15 14 17 13 17 34 9z"/>
<path d="M1384 433 c-12 -12 -13 -18 -4 -21 7 -3 16 1 20 8 9 14 44 10 42 -5
0 -5 -17 -14 -37 -19 -31 -7 -36 -12 -33 -35 3 -24 7 -26 56 -28 l52 -1 0 43
c0 49 -19 75 -55 75 -13 0 -31 -8 -41 -17z m59 -68 c-7 -19 -43 -20 -43 -1 0
8 8 16 18 19 24 5 32 -1 25 -18z"/>
<path d="M1510 388 c0 -32 4 -58 10 -58 6 0 10 15 10 33 0 38 22 73 38 63 7
-4 12 -27 12 -52 0 -32 4 -44 15 -44 11 0 15 12 15 44 0 28 5 46 14 49 22 9
36 -14 36 -56 0 -26 4 -37 12 -35 12 4 13 22 9 90 -1 21 -46 35 -65 19 -7 -6
-16 -7 -20 -3 -4 4 -25 7 -47 8 l-39 0 0 -58z"/>
<path d="M1728 439 c-28 -16 -21 -39 17 -55 38 -16 46 -34 15 -34 -11 0 -20 5
-20 10 0 6 -7 10 -15 10 -18 0 -19 -12 -3 -28 27 -27 88 -11 88 23 0 18 -8 26
-35 35 -47 16 -46 34 3 26 34 -6 36 -5 18 9 -23 17 -44 19 -68 4z"/>
<path d="M1920 390 c0 -47 3 -60 15 -60 12 0 15 13 15 60 0 47 -3 60 -15 60
-12 0 -15 -13 -15 -60z"/>
<path d="M1980 388 c0 -44 3 -58 14 -58 11 0 16 14 18 48 2 34 7 47 18 47 11
0 16 -13 18 -47 2 -34 7 -48 18 -48 10 0 14 12 14 39 0 44 25 75 41 50 5 -8 9
-31 9 -51 0 -27 4 -38 15 -38 20 0 21 79 1 106 -13 17 -18 18 -45 7 -17 -6
-31 -8 -31 -3 0 4 -20 8 -45 8 l-45 -1 0 -59z"/>
<path d="M2200 430 c-25 -25 -26 -62 -2 -83 23 -21 65 -22 82 -2 10 13 7 14
-25 12 -23 -1 -40 3 -42 11 -3 8 8 12 36 12 34 0 41 3 41 19 0 25 -26 51 -51
51 -10 0 -28 -9 -39 -20z m58 -17 c2 -8 -6 -13 -22 -13 -25 0 -33 10 -19 24
10 10 36 3 41 -11z"/>
<path d="M2400 430 c-25 -25 -26 -62 -2 -83 23 -21 66 -22 82 -2 18 22 4 31
-24 16 -13 -8 -29 -10 -35 -7 -13 9 -14 46 -1 66 7 12 12 12 34 0 32 -16 49
-4 22 16 -27 19 -52 18 -76 -6z"/>
<path d="M2530 428 c-24 -26 -25 -46 -4 -76 19 -27 64 -29 87 -4 24 26 21 68
-5 86 -31 22 -54 20 -78 -6z m58 -7 c8 -5 12 -21 10 -37 -2 -21 -9 -30 -26
-32 -26 -4 -37 17 -28 53 7 26 21 31 44 16z"/>
<path d="M2660 388 c0 -67 15 -78 23 -17 10 76 47 79 47 3 0 -32 4 -44 15 -44
11 0 15 12 15 44 0 25 5 48 10 51 20 12 40 -17 40 -56 0 -22 5 -39 10 -39 6 0
10 25 10 55 0 62 -14 76 -55 57 -12 -6 -26 -8 -30 -4 -4 4 -24 7 -46 8 l-39 0
0 -58z"/>
<path d="M2320 345 c0 -8 7 -15 15 -15 8 0 15 7 15 15 0 8 -7 15 -15 15 -8 0
-15 -7 -15 -15z"/>
<path d="M10761 283 c1 -65 5 -61 12 10 2 26 1 47 -4 47 -5 0 -9 -26 -8 -57z"/>
<path d="M10837 323 c-2 -10 -8 -27 -12 -38 -4 -13 -1 -11 9 5 14 25 15 25 19
-20 3 -42 4 -42 5 13 2 54 -10 77 -21 40z"/>
<path d="M11033 285 c0 -33 2 -50 4 -37 2 12 7 22 10 22 2 0 14 -10 25 -22
l20 -23 -17 28 c-14 24 -14 31 -3 45 10 13 8 13 -9 -1 -21 -19 -22 -19 -26 15
-2 18 -4 6 -4 -27z"/>
<path d="M11181 290 c-1 -51 1 -56 21 -57 29 -3 48 14 47 41 -1 19 -2 18 -8
-4 -9 -33 -45 -34 -49 -2 -2 15 4 25 20 32 22 10 22 10 1 6 -16 -3 -23 2 -26
18 -2 11 -5 -4 -6 -34z"/>
<path d="M11353 285 c0 -33 2 -50 4 -37 5 28 20 29 28 1 4 -11 9 -18 12 -16 2
3 -1 15 -7 27 -9 16 -8 25 2 38 10 13 8 13 -9 -1 -21 -19 -22 -19 -26 15 -2
18 -4 6 -4 -27z"/>
<path d="M11623 270 c0 -41 2 -58 4 -37 2 20 2 54 0 75 -2 20 -4 3 -4 -38z"/>
<path d="M11690 285 c0 -51 2 -55 23 -54 16 1 18 2 5 6 -14 3 -18 15 -18 48 0
37 3 44 23 48 19 4 18 4 -5 6 -27 1 -28 0 -28 -54z"/>
<path d="M12198 319 c-2 -6 -2 -28 0 -50 3 -28 9 -39 21 -38 10 0 11 2 4 6
-15 5 -18 60 -4 65 5 2 3 8 -4 15 -9 8 -15 9 -17 2z"/>
<path d="M10912 300 c10 -6 15 -20 13 -35 -1 -14 2 -28 7 -31 5 -4 8 10 6 32
-2 30 -8 40 -23 42 -18 2 -18 1 -3 -8z"/>
<path d="M11131 301 c22 -14 19 -55 -5 -59 -14 -3 -17 0 -13 12 4 9 2 16 -4
16 -6 0 -9 -8 -7 -17 2 -12 13 -18 31 -19 26 -1 28 1 25 35 -2 27 -8 37 -23
39 -17 2 -18 1 -4 -7z"/>
<path d="M11299 302 c7 -6 10 -15 7 -21 -4 -6 -2 -11 4 -11 7 0 10 -7 7 -15
-4 -8 -2 -17 4 -21 7 -4 9 8 7 32 -2 30 -8 40 -23 42 -15 2 -17 1 -6 -6z"/>
<path d="M11430 295 c-26 -31 13 -82 44 -56 19 16 21 42 4 59 -16 16 -33 15
-48 -3z m45 -25 c0 -29 -32 -41 -41 -16 -9 24 4 48 23 44 12 -2 18 -12 18 -28z"/>
<path d="M11762 290 c0 -14 2 -19 5 -12 2 6 2 18 0 25 -3 6 -5 1 -5 -13z"/>
<path d="M11790 271 c0 -23 2 -41 4 -41 8 0 12 71 4 76 -4 3 -8 -13 -8 -35z"/>
<path d="M11855 300 c-3 -6 1 -7 9 -4 18 7 21 14 7 14 -6 0 -13 -4 -16 -10z"/>
<path d="M11949 301 c8 -5 16 -22 19 -38 5 -44 14 -42 10 2 -2 31 -8 41 -23
43 -16 2 -17 1 -6 -7z"/>
<path d="M12003 270 c0 -25 2 -35 4 -22 2 12 2 32 0 45 -2 12 -4 2 -4 -23z"/>
<path d="M12027 303 c6 -4 13 -24 16 -43 4 -34 4 -33 3 4 -1 26 -6 41 -16 43
-10 3 -11 2 -3 -4z"/>
<path d="M12067 303 c6 -4 13 -24 16 -43 4 -34 4 -33 3 4 -1 26 -6 41 -16 43
-10 3 -11 2 -3 -4z"/>
<path d="M12115 300 c-8 -13 3 -30 18 -29 9 0 9 2 0 6 -21 8 -15 26 7 20 11
-3 18 -1 14 4 -7 12 -31 11 -39 -1z"/>
<path d="M12253 270 c0 -25 2 -35 4 -22 2 12 2 32 0 45 -2 12 -4 2 -4 -23z"/>
<path d="M12283 275 c0 -22 2 -30 4 -17 2 12 2 30 0 40 -3 9 -5 -1 -4 -23z"/>
<path d="M12307 303 c6 -4 13 -24 16 -43 4 -34 4 -33 3 4 -1 26 -6 41 -16 43
-10 3 -11 2 -3 -4z"/>
<path d="M12347 303 c6 -4 13 -24 16 -43 4 -34 4 -33 3 4 -1 26 -6 41 -16 43
-10 3 -11 2 -3 -4z"/>
<path d="M12512 298 c-22 -22 -7 -69 23 -68 5 0 2 5 -7 11 -10 5 -18 19 -18
29 0 10 8 24 18 29 9 6 12 11 7 11 -6 0 -16 -5 -23 -12z"/>
<path d="M12592 298 c-22 -22 -7 -69 23 -68 5 0 2 5 -7 11 -10 5 -18 19 -18
29 0 10 8 24 18 29 9 6 12 11 7 11 -6 0 -16 -5 -23 -12z"/>
<path d="M12697 303 c6 -4 13 -24 16 -43 4 -34 4 -33 3 4 -1 26 -6 41 -16 43
-10 3 -11 2 -3 -4z"/>
<path d="M12750 267 c4 -41 5 -41 8 -8 2 18 0 37 -5 42 -5 5 -6 -11 -3 -34z"/>
<path d="M11551 284 c0 -11 3 -14 6 -6 3 7 2 16 -1 19 -3 4 -6 -2 -5 -13z"/>
<path d="M11890 290 c0 -5 -12 -10 -26 -10 -18 0 -25 -5 -22 -16 4 -24 35 -41
48 -28 8 8 4 10 -11 10 -12 -1 -24 5 -26 12 -3 7 5 12 21 12 16 0 26 6 26 15
0 8 -2 15 -5 15 -3 0 -5 -4 -5 -10z"/>
<path d="M12397 293 c-10 -10 -8 -41 3 -48 6 -3 7 1 4 9 -5 12 0 16 20 16 14
0 26 4 26 9 0 4 -12 6 -26 3 -19 -3 -25 -1 -20 7 8 12 3 15 -7 4z"/>
<path d="M12637 279 c4 -13 8 -18 11 -10 2 7 -1 18 -6 23 -8 8 -9 4 -5 -13z"/>
<path d="M12673 265 c0 -22 2 -30 4 -17 2 12 2 30 0 40 -3 9 -5 -1 -4 -23z"/>
<path d="M10976 265 c-20 -30 -21 -46 -2 -19 14 18 15 18 21 2 4 -10 11 -18
16 -18 5 0 3 10 -6 23 -8 13 -12 27 -8 30 3 4 4 7 1 7 -3 0 -13 -11 -22 -25z"/>
<path d="M10883 256 c1 -11 9 -21 17 -23 10 -3 11 -2 4 4 -6 4 -14 15 -17 23
-5 11 -6 9 -4 -4z"/>
<path d="M11273 256 c1 -11 9 -21 17 -23 10 -3 11 -2 4 4 -6 4 -14 15 -17 23
-5 11 -6 9 -4 -4z"/>
<path d="M11923 256 c1 -11 9 -21 17 -23 10 -3 11 -2 4 4 -6 4 -14 15 -17 23
-5 11 -6 9 -4 -4z"/>
<path d="M12156 255 c4 -8 8 -15 10 -15 2 0 4 7 4 15 0 8 -4 15 -10 15 -5 0
-7 -7 -4 -15z"/>
<path d="M10807 253 c-4 -3 -7 -11 -7 -17 0 -6 5 -5 12 2 6 6 9 14 7 17 -3 3
-9 2 -12 -2z"/>
<path d="M11526 248 c3 -5 10 -6 15 -3 13 9 11 12 -6 12 -8 0 -12 -4 -9 -9z"/>
</g>
</svg>
